<svg width="609" height="221" viewBox="0 0 609 221" fill="none" xmlns="http://www.w3.org/2000/svg">
<rect x="15" y="30" width="179" height="158" rx="36" fill="#FDE68A"/>
<path d="M89.6307 98L86.3011 86.3636H88.9886L90.9148 94.4489H91.0114L93.1364 86.3636H95.4375L97.5568 94.4659H97.6591L99.5852 86.3636H102.273L98.9432 98H96.5455L94.3295 90.392H94.2386L92.0284 98H89.6307ZM103.589 98V86.3636H111.43V88.392H106.05V91.1648H111.027V93.1932H106.05V95.9716H111.453V98H103.589ZM113.386 98V86.3636H118.045C118.902 86.3636 119.616 86.4905 120.188 86.7443C120.759 86.9981 121.189 87.3504 121.477 87.8011C121.765 88.2481 121.909 88.7633 121.909 89.3466C121.909 89.8011 121.818 90.2008 121.636 90.5455C121.455 90.8864 121.205 91.1667 120.886 91.3864C120.572 91.6023 120.212 91.7557 119.807 91.8466V91.9602C120.25 91.9792 120.665 92.1042 121.051 92.3352C121.441 92.5663 121.758 92.8902 122 93.3068C122.242 93.7197 122.364 94.2121 122.364 94.7841C122.364 95.4015 122.21 95.9527 121.903 96.4375C121.6 96.9186 121.152 97.2992 120.557 97.5795C119.962 97.8598 119.229 98 118.358 98H113.386ZM115.847 95.9886H117.852C118.538 95.9886 119.038 95.858 119.352 95.5966C119.667 95.3314 119.824 94.9792 119.824 94.5398C119.824 94.2178 119.746 93.9337 119.591 93.6875C119.436 93.4413 119.214 93.2481 118.926 93.108C118.642 92.9678 118.303 92.8977 117.909 92.8977H115.847V95.9886ZM115.847 91.233H117.67C118.008 91.233 118.307 91.1742 118.568 91.0568C118.833 90.9356 119.042 90.7652 119.193 90.5455C119.348 90.3258 119.426 90.0625 119.426 89.7557C119.426 89.3352 119.277 88.9962 118.977 88.7386C118.682 88.4811 118.261 88.3523 117.716 88.3523H115.847V91.233Z" fill="black"/>
<path d="M61.0419 133.17C60.148 133.17 59.379 132.981 58.7351 132.602C58.0949 132.22 57.6025 131.689 57.2578 131.011C56.9169 130.333 56.7464 129.553 56.7464 128.67C56.7464 127.777 56.9188 126.992 57.2635 126.318C57.612 125.64 58.1063 125.112 58.7464 124.733C59.3866 124.35 60.148 124.159 61.0305 124.159C61.7919 124.159 62.4586 124.297 63.0305 124.574C63.6025 124.85 64.0552 125.239 64.3885 125.739C64.7218 126.239 64.9055 126.826 64.9396 127.5H62.6555C62.5911 127.064 62.4207 126.714 62.1442 126.449C61.8714 126.18 61.5135 126.045 61.0703 126.045C60.6953 126.045 60.3677 126.148 60.0874 126.352C59.8108 126.553 59.5949 126.847 59.4396 127.233C59.2843 127.619 59.2067 128.087 59.2067 128.636C59.2067 129.193 59.2824 129.667 59.4339 130.057C59.5893 130.447 59.8071 130.744 60.0874 130.949C60.3677 131.153 60.6953 131.256 61.0703 131.256C61.3468 131.256 61.5949 131.199 61.8146 131.085C62.0381 130.972 62.2218 130.807 62.3658 130.591C62.5135 130.371 62.6101 130.108 62.6555 129.801H64.9396C64.9018 130.468 64.7199 131.055 64.3942 131.562C64.0722 132.066 63.6271 132.46 63.0589 132.744C62.4908 133.028 61.8184 133.17 61.0419 133.17ZM70.4325 133.17C69.55 133.17 68.7867 132.983 68.1428 132.608C67.5026 132.229 67.0083 131.703 66.6598 131.028C66.3113 130.35 66.1371 129.564 66.1371 128.67C66.1371 127.769 66.3113 126.981 66.6598 126.307C67.0083 125.629 67.5026 125.102 68.1428 124.727C68.7867 124.348 69.55 124.159 70.4325 124.159C71.3151 124.159 72.0765 124.348 72.7166 124.727C73.3606 125.102 73.8568 125.629 74.2053 126.307C74.5537 126.981 74.728 127.769 74.728 128.67C74.728 129.564 74.5537 130.35 74.2053 131.028C73.8568 131.703 73.3606 132.229 72.7166 132.608C72.0765 132.983 71.3151 133.17 70.4325 133.17ZM70.4439 131.295C70.8454 131.295 71.1806 131.182 71.4496 130.955C71.7185 130.723 71.9212 130.409 72.0575 130.011C72.1977 129.614 72.2678 129.161 72.2678 128.653C72.2678 128.146 72.1977 127.693 72.0575 127.295C71.9212 126.898 71.7185 126.583 71.4496 126.352C71.1806 126.121 70.8454 126.006 70.4439 126.006C70.0386 126.006 69.6977 126.121 69.4212 126.352C69.1484 126.583 68.942 126.898 68.8018 127.295C68.6655 127.693 68.5973 128.146 68.5973 128.653C68.5973 129.161 68.6655 129.614 68.8018 130.011C68.942 130.409 69.1484 130.723 69.4212 130.955C69.6977 131.182 70.0386 131.295 70.4439 131.295ZM78.7223 121.364V133H76.3018V121.364H78.7223ZM84.6044 133.17C83.7218 133.17 82.9586 132.983 82.3146 132.608C81.6745 132.229 81.1802 131.703 80.8317 131.028C80.4832 130.35 80.3089 129.564 80.3089 128.67C80.3089 127.769 80.4832 126.981 80.8317 126.307C81.1802 125.629 81.6745 125.102 82.3146 124.727C82.9586 124.348 83.7218 124.159 84.6044 124.159C85.487 124.159 86.2483 124.348 86.8885 124.727C87.5324 125.102 88.0286 125.629 88.3771 126.307C88.7256 126.981 88.8999 127.769 88.8999 128.67C88.8999 129.564 88.7256 130.35 88.3771 131.028C88.0286 131.703 87.5324 132.229 86.8885 132.608C86.2483 132.983 85.487 133.17 84.6044 133.17ZM84.6158 131.295C85.0173 131.295 85.3525 131.182 85.6214 130.955C85.8904 130.723 86.093 130.409 86.2294 130.011C86.3696 129.614 86.4396 129.161 86.4396 128.653C86.4396 128.146 86.3696 127.693 86.2294 127.295C86.093 126.898 85.8904 126.583 85.6214 126.352C85.3525 126.121 85.0173 126.006 84.6158 126.006C84.2105 126.006 83.8696 126.121 83.593 126.352C83.3203 126.583 83.1139 126.898 82.9737 127.295C82.8374 127.693 82.7692 128.146 82.7692 128.653C82.7692 129.161 82.8374 129.614 82.9737 130.011C83.1139 130.409 83.3203 130.723 83.593 130.955C83.8696 131.182 84.2105 131.295 84.6158 131.295ZM90.4737 133V124.273H92.8203V125.795H92.9112C93.0703 125.254 93.3374 124.845 93.7124 124.568C94.0874 124.288 94.5192 124.148 95.0078 124.148C95.129 124.148 95.2597 124.155 95.3999 124.17C95.54 124.186 95.6631 124.206 95.7692 124.233V126.381C95.6555 126.347 95.4983 126.316 95.2976 126.29C95.0968 126.263 94.9131 126.25 94.7464 126.25C94.3904 126.25 94.0722 126.328 93.7919 126.483C93.5154 126.634 93.2957 126.847 93.1328 127.119C92.9737 127.392 92.8942 127.706 92.8942 128.062V133H90.4737ZM102.192 127.261V129.182H96.8857V127.261H102.192ZM105.749 136.273C105.442 136.273 105.155 136.248 104.886 136.199C104.621 136.153 104.401 136.095 104.227 136.023L104.772 134.216C105.056 134.303 105.312 134.35 105.539 134.358C105.77 134.366 105.969 134.313 106.136 134.199C106.306 134.085 106.444 133.892 106.55 133.619L106.692 133.25L103.562 124.273H106.107L107.914 130.682H108.005L109.829 124.273H112.391L108.999 133.943C108.836 134.413 108.615 134.822 108.335 135.17C108.058 135.523 107.708 135.794 107.283 135.983C106.859 136.176 106.348 136.273 105.749 136.273ZM117.326 133.17C116.428 133.17 115.656 132.989 115.008 132.625C114.364 132.258 113.868 131.739 113.519 131.068C113.171 130.394 112.996 129.597 112.996 128.676C112.996 127.778 113.171 126.991 113.519 126.312C113.868 125.634 114.358 125.106 114.991 124.727C115.627 124.348 116.373 124.159 117.229 124.159C117.805 124.159 118.341 124.252 118.837 124.438C119.337 124.619 119.773 124.894 120.144 125.261C120.519 125.629 120.811 126.091 121.019 126.648C121.228 127.201 121.332 127.848 121.332 128.591V129.256H113.962V127.756H119.053C119.053 127.407 118.978 127.098 118.826 126.83C118.674 126.561 118.464 126.35 118.195 126.199C117.93 126.044 117.621 125.966 117.269 125.966C116.902 125.966 116.576 126.051 116.292 126.222C116.012 126.388 115.792 126.614 115.633 126.898C115.474 127.178 115.392 127.491 115.388 127.835V129.261C115.388 129.693 115.468 130.066 115.627 130.381C115.79 130.695 116.019 130.938 116.315 131.108C116.61 131.278 116.96 131.364 117.366 131.364C117.635 131.364 117.881 131.326 118.104 131.25C118.328 131.174 118.519 131.061 118.678 130.909C118.837 130.758 118.959 130.572 119.042 130.352L121.281 130.5C121.167 131.038 120.934 131.508 120.582 131.909C120.233 132.307 119.782 132.617 119.229 132.841C118.68 133.061 118.046 133.17 117.326 133.17ZM125.332 121.364V133H122.911V121.364H125.332ZM129.691 121.364V133H127.271V121.364H129.691ZM135.573 133.17C134.691 133.17 133.927 132.983 133.283 132.608C132.643 132.229 132.149 131.703 131.8 131.028C131.452 130.35 131.278 129.564 131.278 128.67C131.278 127.769 131.452 126.981 131.8 126.307C132.149 125.629 132.643 125.102 133.283 124.727C133.927 124.348 134.691 124.159 135.573 124.159C136.456 124.159 137.217 124.348 137.857 124.727C138.501 125.102 138.997 125.629 139.346 126.307C139.694 126.981 139.869 127.769 139.869 128.67C139.869 129.564 139.694 130.35 139.346 131.028C138.997 131.703 138.501 132.229 137.857 132.608C137.217 132.983 136.456 133.17 135.573 133.17ZM135.585 131.295C135.986 131.295 136.321 131.182 136.59 130.955C136.859 130.723 137.062 130.409 137.198 130.011C137.338 129.614 137.408 129.161 137.408 128.653C137.408 128.146 137.338 127.693 137.198 127.295C137.062 126.898 136.859 126.583 136.59 126.352C136.321 126.121 135.986 126.006 135.585 126.006C135.179 126.006 134.838 126.121 134.562 126.352C134.289 126.583 134.083 126.898 133.942 127.295C133.806 127.693 133.738 128.146 133.738 128.653C133.738 129.161 133.806 129.614 133.942 130.011C134.083 130.409 134.289 130.723 134.562 130.955C134.838 131.182 135.179 131.295 135.585 131.295ZM142.945 133L140.57 124.273H143.019L144.371 130.136H144.451L145.86 124.273H148.263L149.695 130.102H149.769L151.099 124.273H153.542L151.173 133H148.61L147.11 127.511H147.002L145.502 133H142.945ZM73.2266 152L75.1357 140.364H76.9538L75.0447 152H73.2266ZM68.0163 149.114L68.3175 147.295H77.4084L77.1072 149.114H68.0163ZM69.1357 152L71.0447 140.364H72.8629L70.9538 152H69.1357ZM68.6811 145.068L68.9879 143.25H78.0788L77.772 145.068H68.6811ZM79.2536 152V140.364H86.9581V142.392H81.7138V145.165H86.4467V147.193H81.7138V152H79.2536ZM92.7379 152H88.6129V140.364H92.772C93.9425 140.364 94.95 140.597 95.7947 141.062C96.6394 141.525 97.2891 142.189 97.7436 143.057C98.2019 143.924 98.4311 144.962 98.4311 146.17C98.4311 147.383 98.2019 148.424 97.7436 149.295C97.2891 150.167 96.6357 150.835 95.7834 151.301C94.9349 151.767 93.9197 152 92.7379 152ZM91.0732 149.892H92.6357C93.3629 149.892 93.9747 149.763 94.4709 149.506C94.9709 149.244 95.3459 148.841 95.5959 148.295C95.8497 147.746 95.9766 147.038 95.9766 146.17C95.9766 145.311 95.8497 144.608 95.5959 144.062C95.3459 143.517 94.9728 143.116 94.4766 142.858C93.9804 142.6 93.3686 142.472 92.6413 142.472H91.0732V149.892ZM100.254 152V140.364H108.094V142.392H102.714V145.165H107.691V147.193H102.714V149.972H108.117V152H100.254ZM114.448 152.159C113.85 152.155 113.272 152.055 112.715 151.858C112.162 151.661 111.666 151.341 111.227 150.898C110.787 150.455 110.439 149.867 110.181 149.136C109.927 148.405 109.8 147.508 109.8 146.443C109.804 145.466 109.916 144.593 110.136 143.824C110.359 143.051 110.677 142.396 111.09 141.858C111.507 141.32 112.005 140.911 112.585 140.631C113.164 140.347 113.814 140.205 114.533 140.205C115.31 140.205 115.996 140.356 116.59 140.659C117.185 140.958 117.662 141.366 118.022 141.881C118.386 142.396 118.605 142.973 118.681 143.614H116.255C116.16 143.208 115.961 142.89 115.658 142.659C115.355 142.428 114.98 142.312 114.533 142.312C113.776 142.312 113.2 142.642 112.806 143.301C112.416 143.96 112.217 144.856 112.21 145.989H112.289C112.463 145.644 112.698 145.35 112.994 145.108C113.293 144.862 113.632 144.674 114.011 144.545C114.393 144.413 114.797 144.347 115.221 144.347C115.91 144.347 116.524 144.509 117.062 144.835C117.6 145.157 118.024 145.6 118.335 146.165C118.645 146.729 118.8 147.375 118.8 148.102C118.8 148.89 118.617 149.591 118.249 150.205C117.886 150.818 117.376 151.299 116.721 151.648C116.069 151.992 115.312 152.163 114.448 152.159ZM114.437 150.227C114.816 150.227 115.155 150.136 115.454 149.955C115.753 149.773 115.988 149.527 116.158 149.216C116.329 148.905 116.414 148.557 116.414 148.17C116.414 147.784 116.329 147.437 116.158 147.131C115.992 146.824 115.761 146.58 115.465 146.398C115.17 146.216 114.833 146.125 114.454 146.125C114.17 146.125 113.906 146.178 113.664 146.284C113.425 146.39 113.215 146.538 113.033 146.727C112.855 146.917 112.715 147.136 112.613 147.386C112.511 147.633 112.46 147.896 112.46 148.176C112.46 148.551 112.545 148.894 112.715 149.205C112.889 149.515 113.124 149.763 113.42 149.949C113.719 150.134 114.058 150.227 114.437 150.227ZM124.886 152.159C124.011 152.159 123.232 152.017 122.55 151.733C121.872 151.445 121.34 151.053 120.954 150.557C120.567 150.061 120.374 149.498 120.374 148.869C120.374 148.384 120.484 147.939 120.704 147.534C120.927 147.125 121.23 146.786 121.613 146.517C121.996 146.244 122.424 146.07 122.897 145.994V145.915C122.276 145.79 121.772 145.489 121.386 145.011C120.999 144.53 120.806 143.972 120.806 143.335C120.806 142.733 120.982 142.197 121.335 141.727C121.687 141.254 122.17 140.883 122.783 140.614C123.401 140.341 124.102 140.205 124.886 140.205C125.67 140.205 126.369 140.341 126.982 140.614C127.6 140.886 128.085 141.259 128.437 141.733C128.789 142.203 128.967 142.737 128.971 143.335C128.967 143.975 128.77 144.534 128.38 145.011C127.99 145.489 127.49 145.79 126.88 145.915V145.994C127.346 146.07 127.768 146.244 128.147 146.517C128.53 146.786 128.833 147.125 129.056 147.534C129.283 147.939 129.399 148.384 129.403 148.869C129.399 149.498 129.204 150.061 128.817 150.557C128.431 151.053 127.897 151.445 127.215 151.733C126.537 152.017 125.761 152.159 124.886 152.159ZM124.886 150.352C125.276 150.352 125.617 150.282 125.908 150.142C126.2 149.998 126.427 149.801 126.59 149.551C126.757 149.297 126.84 149.006 126.84 148.676C126.84 148.339 126.755 148.042 126.585 147.784C126.414 147.523 126.183 147.318 125.891 147.17C125.6 147.019 125.264 146.943 124.886 146.943C124.511 146.943 124.175 147.019 123.88 147.17C123.585 147.318 123.352 147.523 123.181 147.784C123.014 148.042 122.931 148.339 122.931 148.676C122.931 149.006 123.013 149.297 123.175 149.551C123.338 149.801 123.567 149.998 123.863 150.142C124.158 150.282 124.499 150.352 124.886 150.352ZM124.886 145.153C125.211 145.153 125.501 145.087 125.755 144.955C126.009 144.822 126.208 144.638 126.352 144.403C126.496 144.169 126.567 143.898 126.567 143.591C126.567 143.288 126.496 143.023 126.352 142.795C126.208 142.564 126.011 142.384 125.761 142.256C125.511 142.123 125.219 142.057 124.886 142.057C124.556 142.057 124.264 142.123 124.011 142.256C123.757 142.384 123.558 142.564 123.414 142.795C123.274 143.023 123.204 143.288 123.204 143.591C123.204 143.898 123.276 144.169 123.42 144.403C123.564 144.638 123.763 144.822 124.016 144.955C124.27 145.087 124.56 145.153 124.886 145.153ZM133.197 152H130.56L134.577 140.364H137.748L141.759 152H139.123L136.208 143.023H136.117L133.197 152ZM133.032 147.426H139.259V149.347H133.032V147.426Z" fill="black" fill-opacity="0.5"/>
<rect x="214" y="30" width="179" height="158" rx="36" fill="#FDE68A"/>
<path d="M285.966 98V89.2727H288.386V98H285.966ZM287.182 88.1477C286.822 88.1477 286.513 88.0284 286.256 87.7898C286.002 87.5473 285.875 87.2576 285.875 86.9205C285.875 86.5871 286.002 86.3011 286.256 86.0625C286.513 85.8201 286.822 85.6989 287.182 85.6989C287.542 85.6989 287.848 85.8201 288.102 86.0625C288.36 86.3011 288.489 86.5871 288.489 86.9205C288.489 87.2576 288.36 87.5473 288.102 87.7898C287.848 88.0284 287.542 88.1477 287.182 88.1477ZM301.064 92.1818C301.064 93.4508 300.823 94.5303 300.342 95.4205C299.865 96.3106 299.214 96.9905 298.388 97.4602C297.566 97.9261 296.642 98.1591 295.615 98.1591C294.581 98.1591 293.653 97.9242 292.831 97.4545C292.009 96.9848 291.359 96.3049 290.882 95.4148C290.405 94.5246 290.166 93.447 290.166 92.1818C290.166 90.9129 290.405 89.8333 290.882 88.9432C291.359 88.053 292.009 87.375 292.831 86.9091C293.653 86.4394 294.581 86.2045 295.615 86.2045C296.642 86.2045 297.566 86.4394 298.388 86.9091C299.214 87.375 299.865 88.053 300.342 88.9432C300.823 89.8333 301.064 90.9129 301.064 92.1818ZM298.57 92.1818C298.57 91.3598 298.446 90.6667 298.2 90.1023C297.958 89.5379 297.615 89.1098 297.172 88.8182C296.729 88.5265 296.21 88.3807 295.615 88.3807C295.02 88.3807 294.501 88.5265 294.058 88.8182C293.615 89.1098 293.27 89.5379 293.024 90.1023C292.782 90.6667 292.661 91.3598 292.661 92.1818C292.661 93.0038 292.782 93.697 293.024 94.2614C293.27 94.8258 293.615 95.2538 294.058 95.5455C294.501 95.8371 295.02 95.983 295.615 95.983C296.21 95.983 296.729 95.8371 297.172 95.5455C297.615 95.2538 297.958 94.8258 298.2 94.2614C298.446 93.697 298.57 93.0038 298.57 92.1818ZM309.199 89.7102C309.153 89.2519 308.958 88.8958 308.614 88.642C308.269 88.3883 307.801 88.2614 307.21 88.2614C306.809 88.2614 306.47 88.3182 306.193 88.4318C305.917 88.5417 305.705 88.6951 305.557 88.892C305.413 89.089 305.341 89.3125 305.341 89.5625C305.333 89.7708 305.377 89.9527 305.472 90.108C305.57 90.2633 305.705 90.3977 305.875 90.5114C306.045 90.6212 306.242 90.7178 306.466 90.8011C306.689 90.8807 306.928 90.9489 307.182 91.0057L308.227 91.2557C308.735 91.3693 309.201 91.5208 309.625 91.7102C310.049 91.8996 310.417 92.1326 310.727 92.4091C311.038 92.6856 311.278 93.0114 311.449 93.3864C311.623 93.7614 311.712 94.1913 311.716 94.6761C311.712 95.3883 311.53 96.0057 311.17 96.5284C310.814 97.0473 310.299 97.4508 309.625 97.7386C308.955 98.0227 308.146 98.1648 307.199 98.1648C306.259 98.1648 305.441 98.0208 304.744 97.733C304.051 97.4451 303.509 97.0189 303.119 96.4545C302.733 95.8864 302.53 95.1837 302.511 94.3466H304.892C304.919 94.7367 305.03 95.0625 305.227 95.3239C305.428 95.5814 305.695 95.7765 306.028 95.9091C306.366 96.0379 306.746 96.1023 307.17 96.1023C307.587 96.1023 307.949 96.0417 308.256 95.9205C308.566 95.7992 308.807 95.6307 308.977 95.4148C309.148 95.1989 309.233 94.9508 309.233 94.6705C309.233 94.4091 309.155 94.1894 309 94.0114C308.848 93.8333 308.625 93.6818 308.33 93.5568C308.038 93.4318 307.68 93.3182 307.256 93.2159L305.989 92.8977C305.008 92.6591 304.233 92.286 303.665 91.7784C303.097 91.2708 302.814 90.5871 302.818 89.7273C302.814 89.0227 303.002 88.4072 303.381 87.8807C303.763 87.3542 304.288 86.9432 304.955 86.6477C305.621 86.3523 306.379 86.2045 307.227 86.2045C308.091 86.2045 308.845 86.3523 309.489 86.6477C310.136 86.9432 310.64 87.3542 311 87.8807C311.36 88.4072 311.545 89.017 311.557 89.7102H309.199Z" fill="black"/>
<path d="M255.042 133.17C254.148 133.17 253.379 132.981 252.735 132.602C252.095 132.22 251.603 131.689 251.258 131.011C250.917 130.333 250.746 129.553 250.746 128.67C250.746 127.777 250.919 126.992 251.263 126.318C251.612 125.64 252.106 125.112 252.746 124.733C253.387 124.35 254.148 124.159 255.031 124.159C255.792 124.159 256.459 124.297 257.031 124.574C257.603 124.85 258.055 125.239 258.388 125.739C258.722 126.239 258.906 126.826 258.94 127.5H256.656C256.591 127.064 256.421 126.714 256.144 126.449C255.871 126.18 255.513 126.045 255.07 126.045C254.695 126.045 254.368 126.148 254.087 126.352C253.811 126.553 253.595 126.847 253.44 127.233C253.284 127.619 253.207 128.087 253.207 128.636C253.207 129.193 253.282 129.667 253.434 130.057C253.589 130.447 253.807 130.744 254.087 130.949C254.368 131.153 254.695 131.256 255.07 131.256C255.347 131.256 255.595 131.199 255.815 131.085C256.038 130.972 256.222 130.807 256.366 130.591C256.513 130.371 256.61 130.108 256.656 129.801H258.94C258.902 130.468 258.72 131.055 258.394 131.562C258.072 132.066 257.627 132.46 257.059 132.744C256.491 133.028 255.818 133.17 255.042 133.17ZM264.433 133.17C263.55 133.17 262.787 132.983 262.143 132.608C261.503 132.229 261.008 131.703 260.66 131.028C260.311 130.35 260.137 129.564 260.137 128.67C260.137 127.769 260.311 126.981 260.66 126.307C261.008 125.629 261.503 125.102 262.143 124.727C262.787 124.348 263.55 124.159 264.433 124.159C265.315 124.159 266.076 124.348 266.717 124.727C267.361 125.102 267.857 125.629 268.205 126.307C268.554 126.981 268.728 127.769 268.728 128.67C268.728 129.564 268.554 130.35 268.205 131.028C267.857 131.703 267.361 132.229 266.717 132.608C266.076 132.983 265.315 133.17 264.433 133.17ZM264.444 131.295C264.845 131.295 265.181 131.182 265.45 130.955C265.719 130.723 265.921 130.409 266.058 130.011C266.198 129.614 266.268 129.161 266.268 128.653C266.268 128.146 266.198 127.693 266.058 127.295C265.921 126.898 265.719 126.583 265.45 126.352C265.181 126.121 264.845 126.006 264.444 126.006C264.039 126.006 263.698 126.121 263.421 126.352C263.148 126.583 262.942 126.898 262.802 127.295C262.665 127.693 262.597 128.146 262.597 128.653C262.597 129.161 262.665 129.614 262.802 130.011C262.942 130.409 263.148 130.723 263.421 130.955C263.698 131.182 264.039 131.295 264.444 131.295ZM272.722 121.364V133H270.302V121.364H272.722ZM278.604 133.17C277.722 133.17 276.959 132.983 276.315 132.608C275.674 132.229 275.18 131.703 274.832 131.028C274.483 130.35 274.309 129.564 274.309 128.67C274.309 127.769 274.483 126.981 274.832 126.307C275.18 125.629 275.674 125.102 276.315 124.727C276.959 124.348 277.722 124.159 278.604 124.159C279.487 124.159 280.248 124.348 280.888 124.727C281.532 125.102 282.029 125.629 282.377 126.307C282.726 126.981 282.9 127.769 282.9 128.67C282.9 129.564 282.726 130.35 282.377 131.028C282.029 131.703 281.532 132.229 280.888 132.608C280.248 132.983 279.487 133.17 278.604 133.17ZM278.616 131.295C279.017 131.295 279.353 131.182 279.621 130.955C279.89 130.723 280.093 130.409 280.229 130.011C280.37 129.614 280.44 129.161 280.44 128.653C280.44 128.146 280.37 127.693 280.229 127.295C280.093 126.898 279.89 126.583 279.621 126.352C279.353 126.121 279.017 126.006 278.616 126.006C278.21 126.006 277.87 126.121 277.593 126.352C277.32 126.583 277.114 126.898 276.974 127.295C276.837 127.693 276.769 128.146 276.769 128.653C276.769 129.161 276.837 129.614 276.974 130.011C277.114 130.409 277.32 130.723 277.593 130.955C277.87 131.182 278.21 131.295 278.616 131.295ZM284.474 133V124.273H286.82V125.795H286.911C287.07 125.254 287.337 124.845 287.712 124.568C288.087 124.288 288.519 124.148 289.008 124.148C289.129 124.148 289.26 124.155 289.4 124.17C289.54 124.186 289.663 124.206 289.769 124.233V126.381C289.656 126.347 289.498 126.316 289.298 126.29C289.097 126.263 288.913 126.25 288.746 126.25C288.39 126.25 288.072 126.328 287.792 126.483C287.515 126.634 287.296 126.847 287.133 127.119C286.974 127.392 286.894 127.706 286.894 128.062V133H284.474ZM296.192 127.261V129.182H290.886V127.261H296.192ZM299.749 136.273C299.442 136.273 299.155 136.248 298.886 136.199C298.621 136.153 298.401 136.095 298.227 136.023L298.772 134.216C299.056 134.303 299.312 134.35 299.539 134.358C299.77 134.366 299.969 134.313 300.136 134.199C300.306 134.085 300.444 133.892 300.55 133.619L300.692 133.25L297.562 124.273H300.107L301.914 130.682H302.005L303.829 124.273H306.391L302.999 133.943C302.836 134.413 302.615 134.822 302.335 135.17C302.058 135.523 301.708 135.794 301.283 135.983C300.859 136.176 300.348 136.273 299.749 136.273ZM311.326 133.17C310.428 133.17 309.656 132.989 309.008 132.625C308.364 132.258 307.868 131.739 307.519 131.068C307.171 130.394 306.996 129.597 306.996 128.676C306.996 127.778 307.171 126.991 307.519 126.312C307.868 125.634 308.358 125.106 308.991 124.727C309.627 124.348 310.373 124.159 311.229 124.159C311.805 124.159 312.341 124.252 312.837 124.438C313.337 124.619 313.773 124.894 314.144 125.261C314.519 125.629 314.811 126.091 315.019 126.648C315.228 127.201 315.332 127.848 315.332 128.591V129.256H307.962V127.756H313.053C313.053 127.407 312.978 127.098 312.826 126.83C312.674 126.561 312.464 126.35 312.195 126.199C311.93 126.044 311.621 125.966 311.269 125.966C310.902 125.966 310.576 126.051 310.292 126.222C310.012 126.388 309.792 126.614 309.633 126.898C309.474 127.178 309.392 127.491 309.388 127.835V129.261C309.388 129.693 309.468 130.066 309.627 130.381C309.79 130.695 310.019 130.938 310.315 131.108C310.61 131.278 310.96 131.364 311.366 131.364C311.635 131.364 311.881 131.326 312.104 131.25C312.328 131.174 312.519 131.061 312.678 130.909C312.837 130.758 312.959 130.572 313.042 130.352L315.281 130.5C315.167 131.038 314.934 131.508 314.582 131.909C314.233 132.307 313.782 132.617 313.229 132.841C312.68 133.061 312.046 133.17 311.326 133.17ZM319.332 121.364V133H316.911V121.364H319.332ZM323.691 121.364V133H321.271V121.364H323.691ZM329.573 133.17C328.691 133.17 327.927 132.983 327.283 132.608C326.643 132.229 326.149 131.703 325.8 131.028C325.452 130.35 325.278 129.564 325.278 128.67C325.278 127.769 325.452 126.981 325.8 126.307C326.149 125.629 326.643 125.102 327.283 124.727C327.927 124.348 328.691 124.159 329.573 124.159C330.456 124.159 331.217 124.348 331.857 124.727C332.501 125.102 332.997 125.629 333.346 126.307C333.694 126.981 333.869 127.769 333.869 128.67C333.869 129.564 333.694 130.35 333.346 131.028C332.997 131.703 332.501 132.229 331.857 132.608C331.217 132.983 330.456 133.17 329.573 133.17ZM329.585 131.295C329.986 131.295 330.321 131.182 330.59 130.955C330.859 130.723 331.062 130.409 331.198 130.011C331.338 129.614 331.408 129.161 331.408 128.653C331.408 128.146 331.338 127.693 331.198 127.295C331.062 126.898 330.859 126.583 330.59 126.352C330.321 126.121 329.986 126.006 329.585 126.006C329.179 126.006 328.838 126.121 328.562 126.352C328.289 126.583 328.083 126.898 327.942 127.295C327.806 127.693 327.738 128.146 327.738 128.653C327.738 129.161 327.806 129.614 327.942 130.011C328.083 130.409 328.289 130.723 328.562 130.955C328.838 131.182 329.179 131.295 329.585 131.295ZM336.945 133L334.57 124.273H337.019L338.371 130.136H338.451L339.86 124.273H342.263L343.695 130.102H343.769L345.099 124.273H347.542L345.173 133H342.61L341.11 127.511H341.002L339.502 133H336.945ZM267.227 152L269.136 140.364H270.954L269.045 152H267.227ZM262.016 149.114L262.317 147.295H271.408L271.107 149.114H262.016ZM263.136 152L265.045 140.364H266.863L264.954 152H263.136ZM262.681 145.068L262.988 143.25H272.079L271.772 145.068H262.681ZM273.254 152V140.364H280.958V142.392H275.714V145.165H280.447V147.193H275.714V152H273.254ZM286.738 152H282.613V140.364H286.772C287.942 140.364 288.95 140.597 289.795 141.062C290.639 141.525 291.289 142.189 291.744 143.057C292.202 143.924 292.431 144.962 292.431 146.17C292.431 147.383 292.202 148.424 291.744 149.295C291.289 150.167 290.636 150.835 289.783 151.301C288.935 151.767 287.92 152 286.738 152ZM285.073 149.892H286.636C287.363 149.892 287.975 149.763 288.471 149.506C288.971 149.244 289.346 148.841 289.596 148.295C289.85 147.746 289.977 147.038 289.977 146.17C289.977 145.311 289.85 144.608 289.596 144.062C289.346 143.517 288.973 143.116 288.477 142.858C287.98 142.6 287.369 142.472 286.641 142.472H285.073V149.892ZM294.254 152V140.364H302.094V142.392H296.714V145.165H301.691V147.193H296.714V149.972H302.117V152H294.254ZM308.448 152.159C307.85 152.155 307.272 152.055 306.715 151.858C306.162 151.661 305.666 151.341 305.227 150.898C304.787 150.455 304.439 149.867 304.181 149.136C303.927 148.405 303.8 147.508 303.8 146.443C303.804 145.466 303.916 144.593 304.136 143.824C304.359 143.051 304.677 142.396 305.09 141.858C305.507 141.32 306.005 140.911 306.585 140.631C307.164 140.347 307.814 140.205 308.533 140.205C309.31 140.205 309.996 140.356 310.59 140.659C311.185 140.958 311.662 141.366 312.022 141.881C312.386 142.396 312.605 142.973 312.681 143.614H310.255C310.16 143.208 309.961 142.89 309.658 142.659C309.355 142.428 308.98 142.312 308.533 142.312C307.776 142.312 307.2 142.642 306.806 143.301C306.416 143.96 306.217 144.856 306.21 145.989H306.289C306.463 145.644 306.698 145.35 306.994 145.108C307.293 144.862 307.632 144.674 308.011 144.545C308.393 144.413 308.797 144.347 309.221 144.347C309.91 144.347 310.524 144.509 311.062 144.835C311.6 145.157 312.024 145.6 312.335 146.165C312.645 146.729 312.8 147.375 312.8 148.102C312.8 148.89 312.617 149.591 312.249 150.205C311.886 150.818 311.376 151.299 310.721 151.648C310.069 151.992 309.312 152.163 308.448 152.159ZM308.437 150.227C308.816 150.227 309.155 150.136 309.454 149.955C309.753 149.773 309.988 149.527 310.158 149.216C310.329 148.905 310.414 148.557 310.414 148.17C310.414 147.784 310.329 147.437 310.158 147.131C309.992 146.824 309.761 146.58 309.465 146.398C309.17 146.216 308.833 146.125 308.454 146.125C308.17 146.125 307.906 146.178 307.664 146.284C307.425 146.39 307.215 146.538 307.033 146.727C306.855 146.917 306.715 147.136 306.613 147.386C306.511 147.633 306.46 147.896 306.46 148.176C306.46 148.551 306.545 148.894 306.715 149.205C306.889 149.515 307.124 149.763 307.42 149.949C307.719 150.134 308.058 150.227 308.437 150.227ZM318.886 152.159C318.011 152.159 317.232 152.017 316.55 151.733C315.872 151.445 315.34 151.053 314.954 150.557C314.567 150.061 314.374 149.498 314.374 148.869C314.374 148.384 314.484 147.939 314.704 147.534C314.927 147.125 315.23 146.786 315.613 146.517C315.996 146.244 316.424 146.07 316.897 145.994V145.915C316.276 145.79 315.772 145.489 315.386 145.011C314.999 144.53 314.806 143.972 314.806 143.335C314.806 142.733 314.982 142.197 315.335 141.727C315.687 141.254 316.17 140.883 316.783 140.614C317.401 140.341 318.102 140.205 318.886 140.205C319.67 140.205 320.369 140.341 320.982 140.614C321.6 140.886 322.085 141.259 322.437 141.733C322.789 142.203 322.967 142.737 322.971 143.335C322.967 143.975 322.77 144.534 322.38 145.011C321.99 145.489 321.49 145.79 320.88 145.915V145.994C321.346 146.07 321.768 146.244 322.147 146.517C322.53 146.786 322.833 147.125 323.056 147.534C323.283 147.939 323.399 148.384 323.403 148.869C323.399 149.498 323.204 150.061 322.817 150.557C322.431 151.053 321.897 151.445 321.215 151.733C320.537 152.017 319.761 152.159 318.886 152.159ZM318.886 150.352C319.276 150.352 319.617 150.282 319.908 150.142C320.2 149.998 320.427 149.801 320.59 149.551C320.757 149.297 320.84 149.006 320.84 148.676C320.84 148.339 320.755 148.042 320.585 147.784C320.414 147.523 320.183 147.318 319.891 147.17C319.6 147.019 319.264 146.943 318.886 146.943C318.511 146.943 318.175 147.019 317.88 147.17C317.585 147.318 317.352 147.523 317.181 147.784C317.014 148.042 316.931 148.339 316.931 148.676C316.931 149.006 317.013 149.297 317.175 149.551C317.338 149.801 317.567 149.998 317.863 150.142C318.158 150.282 318.499 150.352 318.886 150.352ZM318.886 145.153C319.211 145.153 319.501 145.087 319.755 144.955C320.009 144.822 320.208 144.638 320.352 144.403C320.496 144.169 320.567 143.898 320.567 143.591C320.567 143.288 320.496 143.023 320.352 142.795C320.208 142.564 320.011 142.384 319.761 142.256C319.511 142.123 319.219 142.057 318.886 142.057C318.556 142.057 318.264 142.123 318.011 142.256C317.757 142.384 317.558 142.564 317.414 142.795C317.274 143.023 317.204 143.288 317.204 143.591C317.204 143.898 317.276 144.169 317.42 144.403C317.564 144.638 317.763 144.822 318.016 144.955C318.27 145.087 318.56 145.153 318.886 145.153ZM327.197 152H324.56L328.577 140.364H331.748L335.759 152H333.123L330.208 143.023H330.117L327.197 152ZM327.032 147.426H333.259V149.347H327.032V147.426Z" fill="black" fill-opacity="0.5"/>
<rect x="413" y="30" width="179" height="158" rx="36" fill="#FDE68A"/>
<path d="M474.017 99H471.381L475.398 87.3636H478.568L482.58 99H479.943L477.028 90.0227H476.938L474.017 99ZM473.852 94.4261H480.08V96.3466H473.852V94.4261ZM486.355 93.9545V99H483.935V90.2727H486.241V91.8125H486.344C486.537 91.3049 486.861 90.9034 487.315 90.608C487.77 90.3087 488.321 90.1591 488.969 90.1591C489.575 90.1591 490.103 90.2917 490.554 90.5568C491.005 90.822 491.355 91.2008 491.605 91.6932C491.855 92.1818 491.98 92.7652 491.98 93.4432V99H489.56V93.875C489.563 93.3409 489.427 92.9242 489.151 92.625C488.874 92.322 488.493 92.1705 488.009 92.1705C487.683 92.1705 487.395 92.2405 487.145 92.3807C486.899 92.5208 486.705 92.7254 486.565 92.9943C486.429 93.2595 486.359 93.5795 486.355 93.9545ZM497.104 99.142C496.441 99.142 495.84 98.9716 495.303 98.6307C494.768 98.286 494.344 97.7803 494.03 97.1136C493.719 96.4432 493.564 95.6212 493.564 94.6477C493.564 93.6477 493.725 92.8163 494.047 92.1534C494.369 91.4867 494.797 90.9886 495.331 90.6591C495.869 90.3258 496.458 90.1591 497.098 90.1591C497.587 90.1591 497.994 90.2424 498.32 90.4091C498.649 90.572 498.914 90.7765 499.115 91.0227C499.32 91.2652 499.475 91.5038 499.581 91.7386H499.655V87.3636H502.07V99H499.683V97.6023H499.581C499.467 97.8447 499.306 98.0852 499.098 98.3239C498.893 98.5587 498.626 98.7538 498.297 98.9091C497.971 99.0644 497.573 99.142 497.104 99.142ZM497.871 97.2159C498.261 97.2159 498.59 97.1098 498.859 96.8977C499.132 96.6818 499.34 96.3807 499.484 95.9943C499.632 95.608 499.706 95.1553 499.706 94.6364C499.706 94.1174 499.634 93.6667 499.49 93.2841C499.346 92.9015 499.138 92.6061 498.865 92.3977C498.592 92.1894 498.261 92.0852 497.871 92.0852C497.473 92.0852 497.138 92.1932 496.865 92.4091C496.592 92.625 496.386 92.9242 496.246 93.3068C496.106 93.6894 496.036 94.1326 496.036 94.6364C496.036 95.1439 496.106 95.5928 496.246 95.983C496.39 96.3693 496.596 96.6723 496.865 96.892C497.138 97.108 497.473 97.2159 497.871 97.2159ZM504.06 99V90.2727H506.406V91.7955H506.497C506.656 91.2538 506.923 90.8447 507.298 90.5682C507.673 90.2879 508.105 90.1477 508.594 90.1477C508.715 90.1477 508.846 90.1553 508.986 90.1705C509.126 90.1856 509.249 90.2064 509.355 90.233V92.3807C509.241 92.3466 509.084 92.3163 508.884 92.2898C508.683 92.2633 508.499 92.25 508.332 92.25C507.976 92.25 507.658 92.3277 507.378 92.483C507.101 92.6345 506.882 92.8466 506.719 93.1193C506.56 93.392 506.48 93.7064 506.48 94.0625V99H504.06ZM514.143 99.1705C513.261 99.1705 512.498 98.983 511.854 98.608C511.214 98.2292 510.719 97.7027 510.371 97.0284C510.022 96.3504 509.848 95.5644 509.848 94.6705C509.848 93.7689 510.022 92.9811 510.371 92.3068C510.719 91.6288 511.214 91.1023 511.854 90.7273C512.498 90.3485 513.261 90.1591 514.143 90.1591C515.026 90.1591 515.787 90.3485 516.428 90.7273C517.071 91.1023 517.568 91.6288 517.916 92.3068C518.265 92.9811 518.439 93.7689 518.439 94.6705C518.439 95.5644 518.265 96.3504 517.916 97.0284C517.568 97.7027 517.071 98.2292 516.428 98.608C515.787 98.983 515.026 99.1705 514.143 99.1705ZM514.155 97.2955C514.556 97.2955 514.892 97.1818 515.161 96.9545C515.429 96.7235 515.632 96.4091 515.768 96.0114C515.909 95.6136 515.979 95.161 515.979 94.6534C515.979 94.1458 515.909 93.6932 515.768 93.2955C515.632 92.8977 515.429 92.5833 515.161 92.3523C514.892 92.1212 514.556 92.0057 514.155 92.0057C513.75 92.0057 513.409 92.1212 513.132 92.3523C512.859 92.5833 512.653 92.8977 512.513 93.2955C512.376 93.6932 512.308 94.1458 512.308 94.6534C512.308 95.161 512.376 95.6136 512.513 96.0114C512.653 96.4091 512.859 96.7235 513.132 96.9545C513.409 97.1818 513.75 97.2955 514.155 97.2955ZM520.013 99V90.2727H522.433V99H520.013ZM521.229 89.1477C520.869 89.1477 520.56 89.0284 520.303 88.7898C520.049 88.5473 519.922 88.2576 519.922 87.9205C519.922 87.5871 520.049 87.3011 520.303 87.0625C520.56 86.8201 520.869 86.6989 521.229 86.6989C521.589 86.6989 521.895 86.8201 522.149 87.0625C522.407 87.3011 522.536 87.5871 522.536 87.9205C522.536 88.2576 522.407 88.5473 522.149 88.7898C521.895 89.0284 521.589 89.1477 521.229 89.1477ZM527.588 99.142C526.925 99.142 526.325 98.9716 525.787 98.6307C525.253 98.286 524.829 97.7803 524.514 97.1136C524.204 96.4432 524.048 95.6212 524.048 94.6477C524.048 93.6477 524.209 92.8163 524.531 92.1534C524.853 91.4867 525.281 90.9886 525.815 90.6591C526.353 90.3258 526.942 90.1591 527.582 90.1591C528.071 90.1591 528.478 90.2424 528.804 90.4091C529.134 90.572 529.399 90.7765 529.599 91.0227C529.804 91.2652 529.959 91.5038 530.065 91.7386H530.139V87.3636H532.554V99H530.168V97.6023H530.065C529.952 97.8447 529.791 98.0852 529.582 98.3239C529.378 98.5587 529.111 98.7538 528.781 98.9091C528.455 99.0644 528.058 99.142 527.588 99.142ZM528.355 97.2159C528.745 97.2159 529.075 97.1098 529.344 96.8977C529.616 96.6818 529.825 96.3807 529.969 95.9943C530.116 95.608 530.19 95.1553 530.19 94.6364C530.19 94.1174 530.118 93.6667 529.974 93.2841C529.83 92.9015 529.622 92.6061 529.349 92.3977C529.077 92.1894 528.745 92.0852 528.355 92.0852C527.957 92.0852 527.622 92.1932 527.349 92.4091C527.077 92.625 526.87 92.9242 526.73 93.3068C526.59 93.6894 526.52 94.1326 526.52 94.6364C526.52 95.1439 526.59 95.5928 526.73 95.983C526.874 96.3693 527.08 96.6723 527.349 96.892C527.622 97.108 527.957 97.2159 528.355 97.2159Z" fill="black"/>
<path d="M459.042 133.17C458.148 133.17 457.379 132.981 456.735 132.602C456.095 132.22 455.603 131.689 455.258 131.011C454.917 130.333 454.746 129.553 454.746 128.67C454.746 127.777 454.919 126.992 455.263 126.318C455.612 125.64 456.106 125.112 456.746 124.733C457.387 124.35 458.148 124.159 459.031 124.159C459.792 124.159 460.459 124.297 461.031 124.574C461.603 124.85 462.055 125.239 462.388 125.739C462.722 126.239 462.906 126.826 462.94 127.5H460.656C460.591 127.064 460.421 126.714 460.144 126.449C459.871 126.18 459.513 126.045 459.07 126.045C458.695 126.045 458.368 126.148 458.087 126.352C457.811 126.553 457.595 126.847 457.44 127.233C457.284 127.619 457.207 128.087 457.207 128.636C457.207 129.193 457.282 129.667 457.434 130.057C457.589 130.447 457.807 130.744 458.087 130.949C458.368 131.153 458.695 131.256 459.07 131.256C459.347 131.256 459.595 131.199 459.815 131.085C460.038 130.972 460.222 130.807 460.366 130.591C460.513 130.371 460.61 130.108 460.656 129.801H462.94C462.902 130.468 462.72 131.055 462.394 131.562C462.072 132.066 461.627 132.46 461.059 132.744C460.491 133.028 459.818 133.17 459.042 133.17ZM468.433 133.17C467.55 133.17 466.787 132.983 466.143 132.608C465.503 132.229 465.008 131.703 464.66 131.028C464.311 130.35 464.137 129.564 464.137 128.67C464.137 127.769 464.311 126.981 464.66 126.307C465.008 125.629 465.503 125.102 466.143 124.727C466.787 124.348 467.55 124.159 468.433 124.159C469.315 124.159 470.076 124.348 470.717 124.727C471.361 125.102 471.857 125.629 472.205 126.307C472.554 126.981 472.728 127.769 472.728 128.67C472.728 129.564 472.554 130.35 472.205 131.028C471.857 131.703 471.361 132.229 470.717 132.608C470.076 132.983 469.315 133.17 468.433 133.17ZM468.444 131.295C468.845 131.295 469.181 131.182 469.45 130.955C469.719 130.723 469.921 130.409 470.058 130.011C470.198 129.614 470.268 129.161 470.268 128.653C470.268 128.146 470.198 127.693 470.058 127.295C469.921 126.898 469.719 126.583 469.45 126.352C469.181 126.121 468.845 126.006 468.444 126.006C468.039 126.006 467.698 126.121 467.421 126.352C467.148 126.583 466.942 126.898 466.802 127.295C466.665 127.693 466.597 128.146 466.597 128.653C466.597 129.161 466.665 129.614 466.802 130.011C466.942 130.409 467.148 130.723 467.421 130.955C467.698 131.182 468.039 131.295 468.444 131.295ZM476.722 121.364V133H474.302V121.364H476.722ZM482.604 133.17C481.722 133.17 480.959 132.983 480.315 132.608C479.674 132.229 479.18 131.703 478.832 131.028C478.483 130.35 478.309 129.564 478.309 128.67C478.309 127.769 478.483 126.981 478.832 126.307C479.18 125.629 479.674 125.102 480.315 124.727C480.959 124.348 481.722 124.159 482.604 124.159C483.487 124.159 484.248 124.348 484.888 124.727C485.532 125.102 486.029 125.629 486.377 126.307C486.726 126.981 486.9 127.769 486.9 128.67C486.9 129.564 486.726 130.35 486.377 131.028C486.029 131.703 485.532 132.229 484.888 132.608C484.248 132.983 483.487 133.17 482.604 133.17ZM482.616 131.295C483.017 131.295 483.353 131.182 483.621 130.955C483.89 130.723 484.093 130.409 484.229 130.011C484.37 129.614 484.44 129.161 484.44 128.653C484.44 128.146 484.37 127.693 484.229 127.295C484.093 126.898 483.89 126.583 483.621 126.352C483.353 126.121 483.017 126.006 482.616 126.006C482.21 126.006 481.87 126.121 481.593 126.352C481.32 126.583 481.114 126.898 480.974 127.295C480.837 127.693 480.769 128.146 480.769 128.653C480.769 129.161 480.837 129.614 480.974 130.011C481.114 130.409 481.32 130.723 481.593 130.955C481.87 131.182 482.21 131.295 482.616 131.295ZM488.474 133V124.273H490.82V125.795H490.911C491.07 125.254 491.337 124.845 491.712 124.568C492.087 124.288 492.519 124.148 493.008 124.148C493.129 124.148 493.26 124.155 493.4 124.17C493.54 124.186 493.663 124.206 493.769 124.233V126.381C493.656 126.347 493.498 126.316 493.298 126.29C493.097 126.263 492.913 126.25 492.746 126.25C492.39 126.25 492.072 126.328 491.792 126.483C491.515 126.634 491.296 126.847 491.133 127.119C490.974 127.392 490.894 127.706 490.894 128.062V133H488.474ZM500.192 127.261V129.182H494.886V127.261H500.192ZM503.749 136.273C503.442 136.273 503.155 136.248 502.886 136.199C502.621 136.153 502.401 136.095 502.227 136.023L502.772 134.216C503.056 134.303 503.312 134.35 503.539 134.358C503.77 134.366 503.969 134.313 504.136 134.199C504.306 134.085 504.444 133.892 504.55 133.619L504.692 133.25L501.562 124.273H504.107L505.914 130.682H506.005L507.829 124.273H510.391L506.999 133.943C506.836 134.413 506.615 134.822 506.335 135.17C506.058 135.523 505.708 135.794 505.283 135.983C504.859 136.176 504.348 136.273 503.749 136.273ZM515.326 133.17C514.428 133.17 513.656 132.989 513.008 132.625C512.364 132.258 511.868 131.739 511.519 131.068C511.171 130.394 510.996 129.597 510.996 128.676C510.996 127.778 511.171 126.991 511.519 126.312C511.868 125.634 512.358 125.106 512.991 124.727C513.627 124.348 514.373 124.159 515.229 124.159C515.805 124.159 516.341 124.252 516.837 124.438C517.337 124.619 517.773 124.894 518.144 125.261C518.519 125.629 518.811 126.091 519.019 126.648C519.228 127.201 519.332 127.848 519.332 128.591V129.256H511.962V127.756H517.053C517.053 127.407 516.978 127.098 516.826 126.83C516.674 126.561 516.464 126.35 516.195 126.199C515.93 126.044 515.621 125.966 515.269 125.966C514.902 125.966 514.576 126.051 514.292 126.222C514.012 126.388 513.792 126.614 513.633 126.898C513.474 127.178 513.392 127.491 513.388 127.835V129.261C513.388 129.693 513.468 130.066 513.627 130.381C513.79 130.695 514.019 130.938 514.315 131.108C514.61 131.278 514.96 131.364 515.366 131.364C515.635 131.364 515.881 131.326 516.104 131.25C516.328 131.174 516.519 131.061 516.678 130.909C516.837 130.758 516.959 130.572 517.042 130.352L519.281 130.5C519.167 131.038 518.934 131.508 518.582 131.909C518.233 132.307 517.782 132.617 517.229 132.841C516.68 133.061 516.046 133.17 515.326 133.17ZM523.332 121.364V133H520.911V121.364H523.332ZM527.691 121.364V133H525.271V121.364H527.691ZM533.573 133.17C532.691 133.17 531.927 132.983 531.283 132.608C530.643 132.229 530.149 131.703 529.8 131.028C529.452 130.35 529.278 129.564 529.278 128.67C529.278 127.769 529.452 126.981 529.8 126.307C530.149 125.629 530.643 125.102 531.283 124.727C531.927 124.348 532.691 124.159 533.573 124.159C534.456 124.159 535.217 124.348 535.857 124.727C536.501 125.102 536.997 125.629 537.346 126.307C537.694 126.981 537.869 127.769 537.869 128.67C537.869 129.564 537.694 130.35 537.346 131.028C536.997 131.703 536.501 132.229 535.857 132.608C535.217 132.983 534.456 133.17 533.573 133.17ZM533.585 131.295C533.986 131.295 534.321 131.182 534.59 130.955C534.859 130.723 535.062 130.409 535.198 130.011C535.338 129.614 535.408 129.161 535.408 128.653C535.408 128.146 535.338 127.693 535.198 127.295C535.062 126.898 534.859 126.583 534.59 126.352C534.321 126.121 533.986 126.006 533.585 126.006C533.179 126.006 532.838 126.121 532.562 126.352C532.289 126.583 532.083 126.898 531.942 127.295C531.806 127.693 531.738 128.146 531.738 128.653C531.738 129.161 531.806 129.614 531.942 130.011C532.083 130.409 532.289 130.723 532.562 130.955C532.838 131.182 533.179 131.295 533.585 131.295ZM540.945 133L538.57 124.273H541.019L542.371 130.136H542.451L543.86 124.273H546.263L547.695 130.102H547.769L549.099 124.273H551.542L549.173 133H546.61L545.11 127.511H545.002L543.502 133H540.945ZM471.227 152L473.136 140.364H474.954L473.045 152H471.227ZM466.016 149.114L466.317 147.295H475.408L475.107 149.114H466.016ZM467.136 152L469.045 140.364H470.863L468.954 152H467.136ZM466.681 145.068L466.988 143.25H476.079L475.772 145.068H466.681ZM477.254 152V140.364H484.958V142.392H479.714V145.165H484.447V147.193H479.714V152H477.254ZM490.738 152H486.613V140.364H490.772C491.942 140.364 492.95 140.597 493.795 141.062C494.639 141.525 495.289 142.189 495.744 143.057C496.202 143.924 496.431 144.962 496.431 146.17C496.431 147.383 496.202 148.424 495.744 149.295C495.289 150.167 494.636 150.835 493.783 151.301C492.935 151.767 491.92 152 490.738 152ZM489.073 149.892H490.636C491.363 149.892 491.975 149.763 492.471 149.506C492.971 149.244 493.346 148.841 493.596 148.295C493.85 147.746 493.977 147.038 493.977 146.17C493.977 145.311 493.85 144.608 493.596 144.062C493.346 143.517 492.973 143.116 492.477 142.858C491.98 142.6 491.369 142.472 490.641 142.472H489.073V149.892ZM498.254 152V140.364H506.094V142.392H500.714V145.165H505.691V147.193H500.714V149.972H506.117V152H498.254ZM512.448 152.159C511.85 152.155 511.272 152.055 510.715 151.858C510.162 151.661 509.666 151.341 509.227 150.898C508.787 150.455 508.439 149.867 508.181 149.136C507.927 148.405 507.8 147.508 507.8 146.443C507.804 145.466 507.916 144.593 508.136 143.824C508.359 143.051 508.677 142.396 509.09 141.858C509.507 141.32 510.005 140.911 510.585 140.631C511.164 140.347 511.814 140.205 512.533 140.205C513.31 140.205 513.996 140.356 514.59 140.659C515.185 140.958 515.662 141.366 516.022 141.881C516.386 142.396 516.605 142.973 516.681 143.614H514.255C514.16 143.208 513.961 142.89 513.658 142.659C513.355 142.428 512.98 142.312 512.533 142.312C511.776 142.312 511.2 142.642 510.806 143.301C510.416 143.96 510.217 144.856 510.21 145.989H510.289C510.463 145.644 510.698 145.35 510.994 145.108C511.293 144.862 511.632 144.674 512.011 144.545C512.393 144.413 512.797 144.347 513.221 144.347C513.91 144.347 514.524 144.509 515.062 144.835C515.6 145.157 516.024 145.6 516.335 146.165C516.645 146.729 516.8 147.375 516.8 148.102C516.8 148.89 516.617 149.591 516.249 150.205C515.886 150.818 515.376 151.299 514.721 151.648C514.069 151.992 513.312 152.163 512.448 152.159ZM512.437 150.227C512.816 150.227 513.155 150.136 513.454 149.955C513.753 149.773 513.988 149.527 514.158 149.216C514.329 148.905 514.414 148.557 514.414 148.17C514.414 147.784 514.329 147.437 514.158 147.131C513.992 146.824 513.761 146.58 513.465 146.398C513.17 146.216 512.833 146.125 512.454 146.125C512.17 146.125 511.906 146.178 511.664 146.284C511.425 146.39 511.215 146.538 511.033 146.727C510.855 146.917 510.715 147.136 510.613 147.386C510.511 147.633 510.46 147.896 510.46 148.176C510.46 148.551 510.545 148.894 510.715 149.205C510.889 149.515 511.124 149.763 511.42 149.949C511.719 150.134 512.058 150.227 512.437 150.227ZM522.886 152.159C522.011 152.159 521.232 152.017 520.55 151.733C519.872 151.445 519.34 151.053 518.954 150.557C518.567 150.061 518.374 149.498 518.374 148.869C518.374 148.384 518.484 147.939 518.704 147.534C518.927 147.125 519.23 146.786 519.613 146.517C519.996 146.244 520.424 146.07 520.897 145.994V145.915C520.276 145.79 519.772 145.489 519.386 145.011C518.999 144.53 518.806 143.972 518.806 143.335C518.806 142.733 518.982 142.197 519.335 141.727C519.687 141.254 520.17 140.883 520.783 140.614C521.401 140.341 522.102 140.205 522.886 140.205C523.67 140.205 524.369 140.341 524.982 140.614C525.6 140.886 526.085 141.259 526.437 141.733C526.789 142.203 526.967 142.737 526.971 143.335C526.967 143.975 526.77 144.534 526.38 145.011C525.99 145.489 525.49 145.79 524.88 145.915V145.994C525.346 146.07 525.768 146.244 526.147 146.517C526.53 146.786 526.833 147.125 527.056 147.534C527.283 147.939 527.399 148.384 527.403 148.869C527.399 149.498 527.204 150.061 526.817 150.557C526.431 151.053 525.897 151.445 525.215 151.733C524.537 152.017 523.761 152.159 522.886 152.159ZM522.886 150.352C523.276 150.352 523.617 150.282 523.908 150.142C524.2 149.998 524.427 149.801 524.59 149.551C524.757 149.297 524.84 149.006 524.84 148.676C524.84 148.339 524.755 148.042 524.585 147.784C524.414 147.523 524.183 147.318 523.891 147.17C523.6 147.019 523.264 146.943 522.886 146.943C522.511 146.943 522.175 147.019 521.88 147.17C521.585 147.318 521.352 147.523 521.181 147.784C521.014 148.042 520.931 148.339 520.931 148.676C520.931 149.006 521.013 149.297 521.175 149.551C521.338 149.801 521.567 149.998 521.863 150.142C522.158 150.282 522.499 150.352 522.886 150.352ZM522.886 145.153C523.211 145.153 523.501 145.087 523.755 144.955C524.009 144.822 524.208 144.638 524.352 144.403C524.496 144.169 524.567 143.898 524.567 143.591C524.567 143.288 524.496 143.023 524.352 142.795C524.208 142.564 524.011 142.384 523.761 142.256C523.511 142.123 523.219 142.057 522.886 142.057C522.556 142.057 522.264 142.123 522.011 142.256C521.757 142.384 521.558 142.564 521.414 142.795C521.274 143.023 521.204 143.288 521.204 143.591C521.204 143.898 521.276 144.169 521.42 144.403C521.564 144.638 521.763 144.822 522.016 144.955C522.27 145.087 522.56 145.153 522.886 145.153ZM531.197 152H528.56L532.577 140.364H535.748L539.759 152H537.123L534.208 143.023H534.117L531.197 152ZM531.032 147.426H537.259V149.347H531.032V147.426Z" fill="black" fill-opacity="0.5"/>
</svg>
