<svg width="609" height="221" viewBox="0 0 609 221" fill="none" xmlns="http://www.w3.org/2000/svg">
<rect x="15" y="30" width="179" height="158" rx="36" fill="#F5F4FA"/>
<path d="M89.6307 98L86.3011 86.3636H88.9886L90.9148 94.4489H91.0114L93.1364 86.3636H95.4375L97.5568 94.4659H97.6591L99.5852 86.3636H102.273L98.9432 98H96.5455L94.3295 90.392H94.2386L92.0284 98H89.6307ZM103.589 98V86.3636H111.43V88.392H106.05V91.1648H111.027V93.1932H106.05V95.9716H111.453V98H103.589ZM113.386 98V86.3636H118.045C118.902 86.3636 119.616 86.4905 120.188 86.7443C120.759 86.9981 121.189 87.3504 121.477 87.8011C121.765 88.2481 121.909 88.7633 121.909 89.3466C121.909 89.8011 121.818 90.2008 121.636 90.5455C121.455 90.8864 121.205 91.1667 120.886 91.3864C120.572 91.6023 120.212 91.7557 119.807 91.8466V91.9602C120.25 91.9792 120.665 92.1042 121.051 92.3352C121.441 92.5663 121.758 92.8902 122 93.3068C122.242 93.7197 122.364 94.2121 122.364 94.7841C122.364 95.4015 122.21 95.9527 121.903 96.4375C121.6 96.9186 121.152 97.2992 120.557 97.5795C119.962 97.8598 119.229 98 118.358 98H113.386ZM115.847 95.9886H117.852C118.538 95.9886 119.038 95.858 119.352 95.5966C119.667 95.3314 119.824 94.9792 119.824 94.5398C119.824 94.2178 119.746 93.9337 119.591 93.6875C119.436 93.4413 119.214 93.2481 118.926 93.108C118.642 92.9678 118.303 92.8977 117.909 92.8977H115.847V95.9886ZM115.847 91.233H117.67C118.008 91.233 118.307 91.1742 118.568 91.0568C118.833 90.9356 119.042 90.7652 119.193 90.5455C119.348 90.3258 119.426 90.0625 119.426 89.7557C119.426 89.3352 119.277 88.9962 118.977 88.7386C118.682 88.4811 118.261 88.3523 117.716 88.3523H115.847V91.233Z" fill="black"/>
<path d="M71.4979 123.392V121.364H81.0547V123.392H77.4922V133H75.0604V123.392H71.4979ZM85.0036 127.955V133H82.5831V121.364H84.9354V125.812H85.0376C85.2346 125.297 85.5528 124.894 85.9922 124.602C86.4316 124.307 86.9827 124.159 87.6456 124.159C88.2517 124.159 88.7801 124.292 89.2308 124.557C89.6854 124.818 90.0376 125.195 90.2876 125.688C90.5414 126.176 90.6664 126.761 90.6626 127.443V133H88.2422V127.875C88.246 127.337 88.1096 126.919 87.8331 126.619C87.5604 126.32 87.1778 126.17 86.6854 126.17C86.3558 126.17 86.0642 126.241 85.8104 126.381C85.5604 126.521 85.3634 126.725 85.2195 126.994C85.0793 127.259 85.0073 127.58 85.0036 127.955ZM96.5447 133.17C95.647 133.17 94.8743 132.989 94.2266 132.625C93.5826 132.258 93.0864 131.739 92.7379 131.068C92.3894 130.394 92.2152 129.597 92.2152 128.676C92.2152 127.778 92.3894 126.991 92.7379 126.312C93.0864 125.634 93.5769 125.106 94.2095 124.727C94.8459 124.348 95.5921 124.159 96.4482 124.159C97.0239 124.159 97.5599 124.252 98.0561 124.438C98.5561 124.619 98.9917 124.894 99.3629 125.261C99.7379 125.629 100.03 126.091 100.238 126.648C100.446 127.201 100.55 127.848 100.55 128.591V129.256H93.1811V127.756H98.272C98.272 127.407 98.1963 127.098 98.0447 126.83C97.8932 126.561 97.683 126.35 97.4141 126.199C97.1489 126.044 96.8402 125.966 96.4879 125.966C96.1205 125.966 95.7947 126.051 95.5107 126.222C95.2304 126.388 95.0107 126.614 94.8516 126.898C94.6925 127.178 94.611 127.491 94.6072 127.835V129.261C94.6072 129.693 94.6868 130.066 94.8459 130.381C95.0088 130.695 95.2379 130.938 95.5334 131.108C95.8288 131.278 96.1792 131.364 96.5845 131.364C96.8535 131.364 97.0997 131.326 97.3232 131.25C97.5466 131.174 97.7379 131.061 97.897 130.909C98.0561 130.758 98.1773 130.572 98.2607 130.352L100.499 130.5C100.386 131.038 100.153 131.508 99.8004 131.909C99.4519 132.307 99.0012 132.617 98.4482 132.841C97.8989 133.061 97.2644 133.17 96.5447 133.17ZM102.13 133V124.273H104.437V125.812H104.539C104.721 125.301 105.024 124.898 105.448 124.602C105.872 124.307 106.38 124.159 106.971 124.159C107.569 124.159 108.079 124.309 108.499 124.608C108.92 124.903 109.2 125.305 109.34 125.812H109.431C109.609 125.312 109.931 124.913 110.397 124.614C110.867 124.311 111.422 124.159 112.062 124.159C112.876 124.159 113.537 124.419 114.045 124.938C114.556 125.453 114.812 126.184 114.812 127.131V133H112.397V127.608C112.397 127.123 112.268 126.759 112.011 126.517C111.753 126.275 111.431 126.153 111.045 126.153C110.605 126.153 110.263 126.294 110.016 126.574C109.77 126.85 109.647 127.216 109.647 127.67V133H107.3V127.557C107.3 127.129 107.177 126.788 106.931 126.534C106.689 126.28 106.369 126.153 105.971 126.153C105.702 126.153 105.46 126.222 105.244 126.358C105.031 126.491 104.863 126.678 104.738 126.92C104.613 127.159 104.55 127.439 104.55 127.761V133H102.13ZM120.701 133.17C119.803 133.17 119.031 132.989 118.383 132.625C117.739 132.258 117.243 131.739 116.894 131.068C116.546 130.394 116.371 129.597 116.371 128.676C116.371 127.778 116.546 126.991 116.894 126.312C117.243 125.634 117.733 125.106 118.366 124.727C119.002 124.348 119.748 124.159 120.604 124.159C121.18 124.159 121.716 124.252 122.212 124.438C122.712 124.619 123.148 124.894 123.519 125.261C123.894 125.629 124.186 126.091 124.394 126.648C124.603 127.201 124.707 127.848 124.707 128.591V129.256H117.337V127.756H122.428C122.428 127.407 122.353 127.098 122.201 126.83C122.049 126.561 121.839 126.35 121.57 126.199C121.305 126.044 120.996 125.966 120.644 125.966C120.277 125.966 119.951 126.051 119.667 126.222C119.387 126.388 119.167 126.614 119.008 126.898C118.849 127.178 118.767 127.491 118.763 127.835V129.261C118.763 129.693 118.843 130.066 119.002 130.381C119.165 130.695 119.394 130.938 119.69 131.108C119.985 131.278 120.335 131.364 120.741 131.364C121.01 131.364 121.256 131.326 121.479 131.25C121.703 131.174 121.894 131.061 122.053 130.909C122.212 130.758 122.334 130.572 122.417 130.352L124.656 130.5C124.542 131.038 124.309 131.508 123.957 131.909C123.608 132.307 123.157 132.617 122.604 132.841C122.055 133.061 121.421 133.17 120.701 133.17ZM133.548 126.761L131.332 126.898C131.294 126.708 131.212 126.538 131.087 126.386C130.962 126.231 130.798 126.108 130.593 126.017C130.392 125.922 130.152 125.875 129.871 125.875C129.496 125.875 129.18 125.955 128.923 126.114C128.665 126.269 128.536 126.477 128.536 126.739C128.536 126.947 128.62 127.123 128.786 127.267C128.953 127.411 129.239 127.527 129.644 127.614L131.224 127.932C132.072 128.106 132.705 128.386 133.121 128.773C133.538 129.159 133.746 129.667 133.746 130.295C133.746 130.867 133.578 131.369 133.241 131.801C132.907 132.233 132.449 132.57 131.866 132.812C131.286 133.051 130.618 133.17 129.86 133.17C128.705 133.17 127.784 132.93 127.099 132.449C126.417 131.964 126.017 131.305 125.9 130.472L128.281 130.347C128.353 130.699 128.527 130.968 128.803 131.153C129.08 131.335 129.434 131.426 129.866 131.426C130.29 131.426 130.631 131.345 130.888 131.182C131.15 131.015 131.282 130.801 131.286 130.54C131.282 130.32 131.19 130.14 131.008 130C130.826 129.856 130.546 129.746 130.167 129.67L128.656 129.369C127.803 129.199 127.169 128.903 126.752 128.483C126.339 128.062 126.133 127.527 126.133 126.875C126.133 126.314 126.284 125.831 126.587 125.426C126.894 125.021 127.324 124.708 127.877 124.489C128.434 124.269 129.085 124.159 129.832 124.159C130.934 124.159 131.801 124.392 132.434 124.858C133.07 125.324 133.442 125.958 133.548 126.761ZM136.685 133.148C136.31 133.148 135.988 133.015 135.719 132.75C135.454 132.481 135.322 132.159 135.322 131.784C135.322 131.413 135.454 131.095 135.719 130.83C135.988 130.564 136.31 130.432 136.685 130.432C137.049 130.432 137.367 130.564 137.64 130.83C137.913 131.095 138.049 131.413 138.049 131.784C138.049 132.034 137.985 132.263 137.856 132.472C137.731 132.676 137.566 132.841 137.362 132.966C137.157 133.087 136.932 133.148 136.685 133.148ZM136.685 127.034C136.31 127.034 135.988 126.902 135.719 126.636C135.454 126.371 135.322 126.049 135.322 125.67C135.322 125.299 135.454 124.983 135.719 124.722C135.988 124.456 136.31 124.324 136.685 124.324C137.049 124.324 137.367 124.456 137.64 124.722C137.913 124.983 138.049 125.299 138.049 125.67C138.049 125.924 137.985 126.155 137.856 126.364C137.731 126.568 137.566 126.731 137.362 126.852C137.157 126.973 136.932 127.034 136.685 127.034ZM39.5852 155.273C39.2784 155.273 38.9905 155.248 38.7216 155.199C38.4564 155.153 38.2367 155.095 38.0625 155.023L38.608 153.216C38.892 153.303 39.1477 153.35 39.375 153.358C39.6061 153.366 39.8049 153.313 39.9716 153.199C40.142 153.085 40.2803 152.892 40.3864 152.619L40.5284 152.25L37.3977 143.273H39.9432L41.75 149.682H41.8409L43.6648 143.273H46.2273L42.8352 152.943C42.6723 153.413 42.4508 153.822 42.1705 154.17C41.8939 154.523 41.5436 154.794 41.1193 154.983C40.6951 155.176 40.1837 155.273 39.5852 155.273ZM51.1619 152.17C50.2642 152.17 49.4915 151.989 48.8438 151.625C48.1998 151.258 47.7036 150.739 47.3551 150.068C47.0066 149.394 46.8324 148.597 46.8324 147.676C46.8324 146.778 47.0066 145.991 47.3551 145.312C47.7036 144.634 48.1941 144.106 48.8267 143.727C49.4631 143.348 50.2093 143.159 51.0653 143.159C51.6411 143.159 52.1771 143.252 52.6733 143.438C53.1733 143.619 53.6089 143.894 53.9801 144.261C54.3551 144.629 54.6468 145.091 54.8551 145.648C55.0634 146.201 55.1676 146.848 55.1676 147.591V148.256H47.7983V146.756H52.8892C52.8892 146.407 52.8134 146.098 52.6619 145.83C52.5104 145.561 52.3002 145.35 52.0312 145.199C51.7661 145.044 51.4574 144.966 51.1051 144.966C50.7377 144.966 50.4119 145.051 50.1278 145.222C49.8475 145.388 49.6278 145.614 49.4688 145.898C49.3097 146.178 49.2282 146.491 49.2244 146.835V148.261C49.2244 148.693 49.304 149.066 49.4631 149.381C49.6259 149.695 49.8551 149.938 50.1506 150.108C50.446 150.278 50.7964 150.364 51.2017 150.364C51.4706 150.364 51.7169 150.326 51.9403 150.25C52.1638 150.174 52.3551 150.061 52.5142 149.909C52.6733 149.758 52.7945 149.572 52.8778 149.352L55.1165 149.5C55.0028 150.038 54.7699 150.508 54.4176 150.909C54.0691 151.307 53.6184 151.617 53.0653 151.841C52.5161 152.061 51.8816 152.17 51.1619 152.17ZM59.1676 140.364V152H56.7472V140.364H59.1676ZM63.527 140.364V152H61.1065V140.364H63.527ZM69.4091 152.17C68.5265 152.17 67.7633 151.983 67.1193 151.608C66.4792 151.229 65.9848 150.703 65.6364 150.028C65.2879 149.35 65.1136 148.564 65.1136 147.67C65.1136 146.769 65.2879 145.981 65.6364 145.307C65.9848 144.629 66.4792 144.102 67.1193 143.727C67.7633 143.348 68.5265 143.159 69.4091 143.159C70.2917 143.159 71.053 143.348 71.6932 143.727C72.3371 144.102 72.8333 144.629 73.1818 145.307C73.5303 145.981 73.7045 146.769 73.7045 147.67C73.7045 148.564 73.5303 149.35 73.1818 150.028C72.8333 150.703 72.3371 151.229 71.6932 151.608C71.053 151.983 70.2917 152.17 69.4091 152.17ZM69.4205 150.295C69.822 150.295 70.1572 150.182 70.4261 149.955C70.6951 149.723 70.8977 149.409 71.0341 149.011C71.1742 148.614 71.2443 148.161 71.2443 147.653C71.2443 147.146 71.1742 146.693 71.0341 146.295C70.8977 145.898 70.6951 145.583 70.4261 145.352C70.1572 145.121 69.822 145.006 69.4205 145.006C69.0152 145.006 68.6742 145.121 68.3977 145.352C68.125 145.583 67.9186 145.898 67.7784 146.295C67.642 146.693 67.5739 147.146 67.5739 147.653C67.5739 148.161 67.642 148.614 67.7784 149.011C67.9186 149.409 68.125 149.723 68.3977 149.955C68.6742 150.182 69.0152 150.295 69.4205 150.295ZM76.7812 152L74.4062 143.273H76.8551L78.2074 149.136H78.2869L79.696 143.273H82.0994L83.5312 149.102H83.6051L84.9347 143.273H87.3778L85.0085 152H82.446L80.946 146.511H80.8381L79.3381 152H76.7812ZM90.1122 150.409L90.0497 151.034C90.0005 151.534 89.9058 152.032 89.7656 152.528C89.6293 153.028 89.4853 153.481 89.3338 153.886C89.1861 154.292 89.0668 154.61 88.9759 154.841H87.4077C87.4645 154.617 87.5421 154.305 87.6406 153.903C87.7391 153.506 87.8319 153.059 87.919 152.562C88.0062 152.066 88.0611 151.561 88.0838 151.045L88.1122 150.409H90.1122ZM97.902 140.364V152H95.4815V140.364H97.902ZM99.8409 152V143.273H102.261V152H99.8409ZM101.057 142.148C100.697 142.148 100.388 142.028 100.131 141.79C99.8769 141.547 99.75 141.258 99.75 140.92C99.75 140.587 99.8769 140.301 100.131 140.062C100.388 139.82 100.697 139.699 101.057 139.699C101.417 139.699 101.723 139.82 101.977 140.062C102.235 140.301 102.364 140.587 102.364 140.92C102.364 141.258 102.235 141.547 101.977 141.79C101.723 142.028 101.417 142.148 101.057 142.148ZM108.132 155.455C107.348 155.455 106.676 155.347 106.115 155.131C105.558 154.919 105.115 154.629 104.786 154.261C104.456 153.894 104.242 153.481 104.143 153.023L106.382 152.722C106.45 152.896 106.558 153.059 106.706 153.21C106.854 153.362 107.049 153.483 107.291 153.574C107.537 153.669 107.837 153.716 108.189 153.716C108.715 153.716 109.149 153.587 109.49 153.33C109.835 153.076 110.007 152.65 110.007 152.051V150.455H109.905C109.799 150.697 109.64 150.926 109.428 151.142C109.215 151.358 108.943 151.534 108.609 151.67C108.276 151.807 107.878 151.875 107.416 151.875C106.761 151.875 106.164 151.723 105.626 151.42C105.092 151.114 104.666 150.646 104.348 150.017C104.034 149.384 103.876 148.585 103.876 147.619C103.876 146.631 104.037 145.805 104.359 145.142C104.681 144.479 105.109 143.983 105.643 143.653C106.181 143.324 106.77 143.159 107.411 143.159C107.899 143.159 108.308 143.242 108.638 143.409C108.967 143.572 109.232 143.777 109.433 144.023C109.638 144.265 109.795 144.504 109.905 144.739H109.996V143.273H112.399V152.085C112.399 152.828 112.217 153.449 111.854 153.949C111.49 154.449 110.986 154.824 110.342 155.074C109.702 155.328 108.965 155.455 108.132 155.455ZM108.183 150.057C108.573 150.057 108.903 149.96 109.172 149.767C109.445 149.57 109.653 149.29 109.797 148.926C109.945 148.559 110.018 148.119 110.018 147.608C110.018 147.097 109.946 146.653 109.803 146.278C109.659 145.9 109.45 145.606 109.178 145.398C108.905 145.189 108.573 145.085 108.183 145.085C107.786 145.085 107.45 145.193 107.178 145.409C106.905 145.621 106.698 145.917 106.558 146.295C106.418 146.674 106.348 147.112 106.348 147.608C106.348 148.112 106.418 148.547 106.558 148.915C106.702 149.278 106.909 149.561 107.178 149.761C107.45 149.958 107.786 150.057 108.183 150.057ZM116.746 146.955V152H114.325V140.364H116.678V144.812H116.78C116.977 144.297 117.295 143.894 117.734 143.602C118.174 143.307 118.725 143.159 119.388 143.159C119.994 143.159 120.522 143.292 120.973 143.557C121.428 143.818 121.78 144.195 122.03 144.688C122.284 145.176 122.409 145.761 122.405 146.443V152H119.984V146.875C119.988 146.337 119.852 145.919 119.575 145.619C119.303 145.32 118.92 145.17 118.428 145.17C118.098 145.17 117.806 145.241 117.553 145.381C117.303 145.521 117.106 145.725 116.962 145.994C116.821 146.259 116.75 146.58 116.746 146.955ZM128.952 143.273V145.091H123.696V143.273H128.952ZM124.889 141.182H127.31V149.318C127.31 149.542 127.344 149.716 127.412 149.841C127.48 149.962 127.575 150.047 127.696 150.097C127.821 150.146 127.965 150.17 128.128 150.17C128.241 150.17 128.355 150.161 128.469 150.142C128.582 150.119 128.67 150.102 128.73 150.091L129.111 151.892C128.99 151.93 128.819 151.973 128.599 152.023C128.38 152.076 128.113 152.108 127.798 152.119C127.215 152.142 126.704 152.064 126.264 151.886C125.829 151.708 125.49 151.432 125.247 151.057C125.005 150.682 124.885 150.208 124.889 149.636V141.182ZM133.159 150.409L133.097 151.034C133.047 151.534 132.953 152.032 132.812 152.528C132.676 153.028 132.532 153.481 132.381 153.886C132.233 154.292 132.114 154.61 132.023 154.841H130.455C130.511 154.617 130.589 154.305 130.688 153.903C130.786 153.506 130.879 153.059 130.966 152.562C131.053 152.066 131.108 151.561 131.131 151.045L131.159 150.409H133.159ZM141.744 152.142C141.081 152.142 140.481 151.972 139.943 151.631C139.409 151.286 138.985 150.78 138.67 150.114C138.36 149.443 138.205 148.621 138.205 147.648C138.205 146.648 138.366 145.816 138.688 145.153C139.009 144.487 139.438 143.989 139.972 143.659C140.509 143.326 141.098 143.159 141.739 143.159C142.227 143.159 142.634 143.242 142.96 143.409C143.29 143.572 143.555 143.777 143.756 144.023C143.96 144.265 144.116 144.504 144.222 144.739H144.295V140.364H146.71V152H144.324V150.602H144.222C144.108 150.845 143.947 151.085 143.739 151.324C143.534 151.559 143.267 151.754 142.938 151.909C142.612 152.064 142.214 152.142 141.744 152.142ZM142.511 150.216C142.902 150.216 143.231 150.11 143.5 149.898C143.773 149.682 143.981 149.381 144.125 148.994C144.273 148.608 144.347 148.155 144.347 147.636C144.347 147.117 144.275 146.667 144.131 146.284C143.987 145.902 143.778 145.606 143.506 145.398C143.233 145.189 142.902 145.085 142.511 145.085C142.114 145.085 141.778 145.193 141.506 145.409C141.233 145.625 141.027 145.924 140.886 146.307C140.746 146.689 140.676 147.133 140.676 147.636C140.676 148.144 140.746 148.593 140.886 148.983C141.03 149.369 141.237 149.672 141.506 149.892C141.778 150.108 142.114 150.216 142.511 150.216ZM151.189 152.165C150.632 152.165 150.136 152.068 149.7 151.875C149.265 151.678 148.92 151.388 148.666 151.006C148.416 150.619 148.291 150.138 148.291 149.562C148.291 149.078 148.38 148.67 148.558 148.341C148.736 148.011 148.979 147.746 149.286 147.545C149.592 147.345 149.941 147.193 150.331 147.091C150.725 146.989 151.138 146.917 151.57 146.875C152.077 146.822 152.486 146.773 152.797 146.727C153.107 146.678 153.333 146.606 153.473 146.511C153.613 146.417 153.683 146.277 153.683 146.091V146.057C153.683 145.697 153.57 145.419 153.342 145.222C153.119 145.025 152.801 144.926 152.388 144.926C151.952 144.926 151.606 145.023 151.348 145.216C151.09 145.405 150.92 145.644 150.837 145.932L148.598 145.75C148.712 145.22 148.935 144.761 149.268 144.375C149.602 143.985 150.032 143.686 150.558 143.477C151.089 143.265 151.702 143.159 152.399 143.159C152.884 143.159 153.348 143.216 153.791 143.33C154.238 143.443 154.634 143.619 154.979 143.858C155.327 144.097 155.602 144.403 155.803 144.778C156.003 145.15 156.104 145.595 156.104 146.114V152H153.808V150.79H153.74C153.6 151.062 153.412 151.303 153.178 151.511C152.943 151.716 152.661 151.877 152.331 151.994C152.001 152.108 151.621 152.165 151.189 152.165ZM151.882 150.494C152.238 150.494 152.553 150.424 152.825 150.284C153.098 150.14 153.312 149.947 153.467 149.705C153.623 149.462 153.7 149.187 153.7 148.881V147.955C153.625 148.004 153.52 148.049 153.388 148.091C153.259 148.129 153.113 148.165 152.95 148.199C152.787 148.229 152.625 148.258 152.462 148.284C152.299 148.307 152.151 148.328 152.018 148.347C151.734 148.388 151.486 148.455 151.274 148.545C151.062 148.636 150.897 148.759 150.78 148.915C150.662 149.066 150.604 149.256 150.604 149.483C150.604 149.812 150.723 150.064 150.962 150.239C151.204 150.409 151.511 150.494 151.882 150.494ZM157.982 152V143.273H160.328V144.795H160.419C160.578 144.254 160.845 143.845 161.22 143.568C161.595 143.288 162.027 143.148 162.516 143.148C162.637 143.148 162.768 143.155 162.908 143.17C163.048 143.186 163.171 143.206 163.277 143.233V145.381C163.163 145.347 163.006 145.316 162.805 145.29C162.605 145.263 162.421 145.25 162.254 145.25C161.898 145.25 161.58 145.328 161.3 145.483C161.023 145.634 160.804 145.847 160.641 146.119C160.482 146.392 160.402 146.706 160.402 147.062V152H157.982ZM166.722 149.489L166.727 146.585H167.08L169.875 143.273H172.653L168.898 147.659H168.324L166.722 149.489ZM164.528 152V140.364H166.949V152H164.528ZM169.983 152L167.415 148.199L169.028 146.489L172.818 152H169.983Z" fill="black" fill-opacity="0.5"/>
<rect x="214" y="30" width="179" height="158" rx="36" fill="#F5F4FA"/>
<path d="M285.966 98V89.2727H288.386V98H285.966ZM287.182 88.1477C286.822 88.1477 286.513 88.0284 286.256 87.7898C286.002 87.5473 285.875 87.2576 285.875 86.9205C285.875 86.5871 286.002 86.3011 286.256 86.0625C286.513 85.8201 286.822 85.6989 287.182 85.6989C287.542 85.6989 287.848 85.8201 288.102 86.0625C288.36 86.3011 288.489 86.5871 288.489 86.9205C288.489 87.2576 288.36 87.5473 288.102 87.7898C287.848 88.0284 287.542 88.1477 287.182 88.1477ZM301.064 92.1818C301.064 93.4508 300.823 94.5303 300.342 95.4205C299.865 96.3106 299.214 96.9905 298.388 97.4602C297.566 97.9261 296.642 98.1591 295.615 98.1591C294.581 98.1591 293.653 97.9242 292.831 97.4545C292.009 96.9848 291.359 96.3049 290.882 95.4148C290.405 94.5246 290.166 93.447 290.166 92.1818C290.166 90.9129 290.405 89.8333 290.882 88.9432C291.359 88.053 292.009 87.375 292.831 86.9091C293.653 86.4394 294.581 86.2045 295.615 86.2045C296.642 86.2045 297.566 86.4394 298.388 86.9091C299.214 87.375 299.865 88.053 300.342 88.9432C300.823 89.8333 301.064 90.9129 301.064 92.1818ZM298.57 92.1818C298.57 91.3598 298.446 90.6667 298.2 90.1023C297.958 89.5379 297.615 89.1098 297.172 88.8182C296.729 88.5265 296.21 88.3807 295.615 88.3807C295.02 88.3807 294.501 88.5265 294.058 88.8182C293.615 89.1098 293.27 89.5379 293.024 90.1023C292.782 90.6667 292.661 91.3598 292.661 92.1818C292.661 93.0038 292.782 93.697 293.024 94.2614C293.27 94.8258 293.615 95.2538 294.058 95.5455C294.501 95.8371 295.02 95.983 295.615 95.983C296.21 95.983 296.729 95.8371 297.172 95.5455C297.615 95.2538 297.958 94.8258 298.2 94.2614C298.446 93.697 298.57 93.0038 298.57 92.1818ZM309.199 89.7102C309.153 89.2519 308.958 88.8958 308.614 88.642C308.269 88.3883 307.801 88.2614 307.21 88.2614C306.809 88.2614 306.47 88.3182 306.193 88.4318C305.917 88.5417 305.705 88.6951 305.557 88.892C305.413 89.089 305.341 89.3125 305.341 89.5625C305.333 89.7708 305.377 89.9527 305.472 90.108C305.57 90.2633 305.705 90.3977 305.875 90.5114C306.045 90.6212 306.242 90.7178 306.466 90.8011C306.689 90.8807 306.928 90.9489 307.182 91.0057L308.227 91.2557C308.735 91.3693 309.201 91.5208 309.625 91.7102C310.049 91.8996 310.417 92.1326 310.727 92.4091C311.038 92.6856 311.278 93.0114 311.449 93.3864C311.623 93.7614 311.712 94.1913 311.716 94.6761C311.712 95.3883 311.53 96.0057 311.17 96.5284C310.814 97.0473 310.299 97.4508 309.625 97.7386C308.955 98.0227 308.146 98.1648 307.199 98.1648C306.259 98.1648 305.441 98.0208 304.744 97.733C304.051 97.4451 303.509 97.0189 303.119 96.4545C302.733 95.8864 302.53 95.1837 302.511 94.3466H304.892C304.919 94.7367 305.03 95.0625 305.227 95.3239C305.428 95.5814 305.695 95.7765 306.028 95.9091C306.366 96.0379 306.746 96.1023 307.17 96.1023C307.587 96.1023 307.949 96.0417 308.256 95.9205C308.566 95.7992 308.807 95.6307 308.977 95.4148C309.148 95.1989 309.233 94.9508 309.233 94.6705C309.233 94.4091 309.155 94.1894 309 94.0114C308.848 93.8333 308.625 93.6818 308.33 93.5568C308.038 93.4318 307.68 93.3182 307.256 93.2159L305.989 92.8977C305.008 92.6591 304.233 92.286 303.665 91.7784C303.097 91.2708 302.814 90.5871 302.818 89.7273C302.814 89.0227 303.002 88.4072 303.381 87.8807C303.763 87.3542 304.288 86.9432 304.955 86.6477C305.621 86.3523 306.379 86.2045 307.227 86.2045C308.091 86.2045 308.845 86.3523 309.489 86.6477C310.136 86.9432 310.64 87.3542 311 87.8807C311.36 88.4072 311.545 89.017 311.557 89.7102H309.199Z" fill="black"/>
<path d="M265.998 123.392V121.364H275.555V123.392H271.992V133H269.56V123.392H265.998ZM279.504 127.955V133H277.083V121.364H279.435V125.812H279.538C279.735 125.297 280.053 124.894 280.492 124.602C280.932 124.307 281.483 124.159 282.146 124.159C282.752 124.159 283.28 124.292 283.731 124.557C284.185 124.818 284.538 125.195 284.788 125.688C285.041 126.176 285.166 126.761 285.163 127.443V133H282.742V127.875C282.746 127.337 282.61 126.919 282.333 126.619C282.06 126.32 281.678 126.17 281.185 126.17C280.856 126.17 280.564 126.241 280.31 126.381C280.06 126.521 279.863 126.725 279.719 126.994C279.579 127.259 279.507 127.58 279.504 127.955ZM291.045 133.17C290.147 133.17 289.374 132.989 288.727 132.625C288.083 132.258 287.586 131.739 287.238 131.068C286.889 130.394 286.715 129.597 286.715 128.676C286.715 127.778 286.889 126.991 287.238 126.312C287.586 125.634 288.077 125.106 288.71 124.727C289.346 124.348 290.092 124.159 290.948 124.159C291.524 124.159 292.06 124.252 292.556 124.438C293.056 124.619 293.492 124.894 293.863 125.261C294.238 125.629 294.53 126.091 294.738 126.648C294.946 127.201 295.05 127.848 295.05 128.591V129.256H287.681V127.756H292.772C292.772 127.407 292.696 127.098 292.545 126.83C292.393 126.561 292.183 126.35 291.914 126.199C291.649 126.044 291.34 125.966 290.988 125.966C290.621 125.966 290.295 126.051 290.011 126.222C289.73 126.388 289.511 126.614 289.352 126.898C289.192 127.178 289.111 127.491 289.107 127.835V129.261C289.107 129.693 289.187 130.066 289.346 130.381C289.509 130.695 289.738 130.938 290.033 131.108C290.329 131.278 290.679 131.364 291.085 131.364C291.353 131.364 291.6 131.326 291.823 131.25C292.047 131.174 292.238 131.061 292.397 130.909C292.556 130.758 292.677 130.572 292.761 130.352L294.999 130.5C294.886 131.038 294.653 131.508 294.3 131.909C293.952 132.307 293.501 132.617 292.948 132.841C292.399 133.061 291.764 133.17 291.045 133.17ZM296.63 133V124.273H298.937V125.812H299.039C299.221 125.301 299.524 124.898 299.948 124.602C300.372 124.307 300.88 124.159 301.471 124.159C302.069 124.159 302.579 124.309 302.999 124.608C303.42 124.903 303.7 125.305 303.84 125.812H303.931C304.109 125.312 304.431 124.913 304.897 124.614C305.367 124.311 305.922 124.159 306.562 124.159C307.376 124.159 308.037 124.419 308.545 124.938C309.056 125.453 309.312 126.184 309.312 127.131V133H306.897V127.608C306.897 127.123 306.768 126.759 306.511 126.517C306.253 126.275 305.931 126.153 305.545 126.153C305.105 126.153 304.763 126.294 304.516 126.574C304.27 126.85 304.147 127.216 304.147 127.67V133H301.8V127.557C301.8 127.129 301.677 126.788 301.431 126.534C301.189 126.28 300.869 126.153 300.471 126.153C300.202 126.153 299.96 126.222 299.744 126.358C299.531 126.491 299.363 126.678 299.238 126.92C299.113 127.159 299.05 127.439 299.05 127.761V133H296.63ZM315.201 133.17C314.303 133.17 313.531 132.989 312.883 132.625C312.239 132.258 311.743 131.739 311.394 131.068C311.046 130.394 310.871 129.597 310.871 128.676C310.871 127.778 311.046 126.991 311.394 126.312C311.743 125.634 312.233 125.106 312.866 124.727C313.502 124.348 314.248 124.159 315.104 124.159C315.68 124.159 316.216 124.252 316.712 124.438C317.212 124.619 317.648 124.894 318.019 125.261C318.394 125.629 318.686 126.091 318.894 126.648C319.103 127.201 319.207 127.848 319.207 128.591V129.256H311.837V127.756H316.928C316.928 127.407 316.853 127.098 316.701 126.83C316.549 126.561 316.339 126.35 316.07 126.199C315.805 126.044 315.496 125.966 315.144 125.966C314.777 125.966 314.451 126.051 314.167 126.222C313.887 126.388 313.667 126.614 313.508 126.898C313.349 127.178 313.267 127.491 313.263 127.835V129.261C313.263 129.693 313.343 130.066 313.502 130.381C313.665 130.695 313.894 130.938 314.19 131.108C314.485 131.278 314.835 131.364 315.241 131.364C315.51 131.364 315.756 131.326 315.979 131.25C316.203 131.174 316.394 131.061 316.553 130.909C316.712 130.758 316.834 130.572 316.917 130.352L319.156 130.5C319.042 131.038 318.809 131.508 318.457 131.909C318.108 132.307 317.657 132.617 317.104 132.841C316.555 133.061 315.921 133.17 315.201 133.17ZM328.048 126.761L325.832 126.898C325.794 126.708 325.712 126.538 325.587 126.386C325.462 126.231 325.298 126.108 325.093 126.017C324.892 125.922 324.652 125.875 324.371 125.875C323.996 125.875 323.68 125.955 323.423 126.114C323.165 126.269 323.036 126.477 323.036 126.739C323.036 126.947 323.12 127.123 323.286 127.267C323.453 127.411 323.739 127.527 324.144 127.614L325.724 127.932C326.572 128.106 327.205 128.386 327.621 128.773C328.038 129.159 328.246 129.667 328.246 130.295C328.246 130.867 328.078 131.369 327.741 131.801C327.407 132.233 326.949 132.57 326.366 132.812C325.786 133.051 325.118 133.17 324.36 133.17C323.205 133.17 322.284 132.93 321.599 132.449C320.917 131.964 320.517 131.305 320.4 130.472L322.781 130.347C322.853 130.699 323.027 130.968 323.303 131.153C323.58 131.335 323.934 131.426 324.366 131.426C324.79 131.426 325.131 131.345 325.388 131.182C325.65 131.015 325.782 130.801 325.786 130.54C325.782 130.32 325.69 130.14 325.508 130C325.326 129.856 325.046 129.746 324.667 129.67L323.156 129.369C322.303 129.199 321.669 128.903 321.252 128.483C320.839 128.062 320.633 127.527 320.633 126.875C320.633 126.314 320.784 125.831 321.087 125.426C321.394 125.021 321.824 124.708 322.377 124.489C322.934 124.269 323.585 124.159 324.332 124.159C325.434 124.159 326.301 124.392 326.934 124.858C327.57 125.324 327.942 125.958 328.048 126.761ZM331.185 133.148C330.81 133.148 330.488 133.015 330.219 132.75C329.954 132.481 329.822 132.159 329.822 131.784C329.822 131.413 329.954 131.095 330.219 130.83C330.488 130.564 330.81 130.432 331.185 130.432C331.549 130.432 331.867 130.564 332.14 130.83C332.413 131.095 332.549 131.413 332.549 131.784C332.549 132.034 332.485 132.263 332.356 132.472C332.231 132.676 332.066 132.841 331.862 132.966C331.657 133.087 331.432 133.148 331.185 133.148ZM331.185 127.034C330.81 127.034 330.488 126.902 330.219 126.636C329.954 126.371 329.822 126.049 329.822 125.67C329.822 125.299 329.954 124.983 330.219 124.722C330.488 124.456 330.81 124.324 331.185 124.324C331.549 124.324 331.867 124.456 332.14 124.722C332.413 124.983 332.549 125.299 332.549 125.67C332.549 125.924 332.485 126.155 332.356 126.364C332.231 126.568 332.066 126.731 331.862 126.852C331.657 126.973 331.432 127.034 331.185 127.034ZM263.707 140.364V152H261.286V140.364H263.707ZM265.646 152V143.273H268.066V152H265.646ZM266.862 142.148C266.502 142.148 266.193 142.028 265.935 141.79C265.682 141.547 265.555 141.258 265.555 140.92C265.555 140.587 265.682 140.301 265.935 140.062C266.193 139.82 266.502 139.699 266.862 139.699C267.221 139.699 267.528 139.82 267.782 140.062C268.04 140.301 268.168 140.587 268.168 140.92C268.168 141.258 268.04 141.547 267.782 141.79C267.528 142.028 267.221 142.148 266.862 142.148ZM273.937 155.455C273.153 155.455 272.48 155.347 271.92 155.131C271.363 154.919 270.92 154.629 270.59 154.261C270.261 153.894 270.047 153.481 269.948 153.023L272.187 152.722C272.255 152.896 272.363 153.059 272.511 153.21C272.658 153.362 272.853 153.483 273.096 153.574C273.342 153.669 273.641 153.716 273.994 153.716C274.52 153.716 274.954 153.587 275.295 153.33C275.639 153.076 275.812 152.65 275.812 152.051V150.455H275.71C275.603 150.697 275.444 150.926 275.232 151.142C275.02 151.358 274.747 151.534 274.414 151.67C274.081 151.807 273.683 151.875 273.221 151.875C272.566 151.875 271.969 151.723 271.431 151.42C270.897 151.114 270.471 150.646 270.153 150.017C269.838 149.384 269.681 148.585 269.681 147.619C269.681 146.631 269.842 145.805 270.164 145.142C270.486 144.479 270.914 143.983 271.448 143.653C271.986 143.324 272.575 143.159 273.215 143.159C273.704 143.159 274.113 143.242 274.442 143.409C274.772 143.572 275.037 143.777 275.238 144.023C275.442 144.265 275.6 144.504 275.71 144.739H275.8V143.273H278.204V152.085C278.204 152.828 278.022 153.449 277.658 153.949C277.295 154.449 276.791 154.824 276.147 155.074C275.507 155.328 274.77 155.455 273.937 155.455ZM273.988 150.057C274.378 150.057 274.708 149.96 274.977 149.767C275.249 149.57 275.458 149.29 275.602 148.926C275.749 148.559 275.823 148.119 275.823 147.608C275.823 147.097 275.751 146.653 275.607 146.278C275.463 145.9 275.255 145.606 274.982 145.398C274.71 145.189 274.378 145.085 273.988 145.085C273.59 145.085 273.255 145.193 272.982 145.409C272.71 145.621 272.503 145.917 272.363 146.295C272.223 146.674 272.153 147.112 272.153 147.608C272.153 148.112 272.223 148.547 272.363 148.915C272.507 149.278 272.713 149.561 272.982 149.761C273.255 149.958 273.59 150.057 273.988 150.057ZM282.55 146.955V152H280.13V140.364H282.482V144.812H282.585C282.781 144.297 283.1 143.894 283.539 143.602C283.978 143.307 284.53 143.159 285.192 143.159C285.799 143.159 286.327 143.292 286.778 143.557C287.232 143.818 287.585 144.195 287.835 144.688C288.088 145.176 288.213 145.761 288.21 146.443V152H285.789V146.875C285.793 146.337 285.656 145.919 285.38 145.619C285.107 145.32 284.725 145.17 284.232 145.17C283.903 145.17 283.611 145.241 283.357 145.381C283.107 145.521 282.91 145.725 282.766 145.994C282.626 146.259 282.554 146.58 282.55 146.955ZM294.756 143.273V145.091H289.501V143.273H294.756ZM290.694 141.182H293.114V149.318C293.114 149.542 293.148 149.716 293.217 149.841C293.285 149.962 293.379 150.047 293.501 150.097C293.626 150.146 293.77 150.17 293.933 150.17C294.046 150.17 294.16 150.161 294.273 150.142C294.387 150.119 294.474 150.102 294.535 150.091L294.915 151.892C294.794 151.93 294.624 151.973 294.404 152.023C294.184 152.076 293.917 152.108 293.603 152.119C293.02 152.142 292.508 152.064 292.069 151.886C291.633 151.708 291.294 151.432 291.052 151.057C290.809 150.682 290.69 150.208 290.694 149.636V141.182ZM298.964 150.409L298.901 151.034C298.852 151.534 298.757 152.032 298.617 152.528C298.481 153.028 298.337 153.481 298.185 153.886C298.038 154.292 297.918 154.61 297.827 154.841H296.259C296.316 154.617 296.394 154.305 296.492 153.903C296.591 153.506 296.683 153.059 296.771 152.562C296.858 152.066 296.913 151.561 296.935 151.045L296.964 150.409H298.964ZM307.549 152.142C306.886 152.142 306.286 151.972 305.748 151.631C305.214 151.286 304.79 150.78 304.475 150.114C304.165 149.443 304.009 148.621 304.009 147.648C304.009 146.648 304.17 145.816 304.492 145.153C304.814 144.487 305.242 143.989 305.776 143.659C306.314 143.326 306.903 143.159 307.543 143.159C308.032 143.159 308.439 143.242 308.765 143.409C309.094 143.572 309.36 143.777 309.56 144.023C309.765 144.265 309.92 144.504 310.026 144.739H310.1V140.364H312.515V152H310.129V150.602H310.026C309.913 150.845 309.752 151.085 309.543 151.324C309.339 151.559 309.072 151.754 308.742 151.909C308.416 152.064 308.019 152.142 307.549 152.142ZM308.316 150.216C308.706 150.216 309.036 150.11 309.305 149.898C309.577 149.682 309.786 149.381 309.93 148.994C310.077 148.608 310.151 148.155 310.151 147.636C310.151 147.117 310.079 146.667 309.935 146.284C309.791 145.902 309.583 145.606 309.31 145.398C309.038 145.189 308.706 145.085 308.316 145.085C307.918 145.085 307.583 145.193 307.31 145.409C307.038 145.625 306.831 145.924 306.691 146.307C306.551 146.689 306.481 147.133 306.481 147.636C306.481 148.144 306.551 148.593 306.691 148.983C306.835 149.369 307.041 149.672 307.31 149.892C307.583 150.108 307.918 150.216 308.316 150.216ZM316.994 152.165C316.437 152.165 315.941 152.068 315.505 151.875C315.069 151.678 314.725 151.388 314.471 151.006C314.221 150.619 314.096 150.138 314.096 149.562C314.096 149.078 314.185 148.67 314.363 148.341C314.541 148.011 314.783 147.746 315.09 147.545C315.397 147.345 315.746 147.193 316.136 147.091C316.53 146.989 316.942 146.917 317.374 146.875C317.882 146.822 318.291 146.773 318.602 146.727C318.912 146.678 319.138 146.606 319.278 146.511C319.418 146.417 319.488 146.277 319.488 146.091V146.057C319.488 145.697 319.374 145.419 319.147 145.222C318.924 145.025 318.605 144.926 318.192 144.926C317.757 144.926 317.41 145.023 317.153 145.216C316.895 145.405 316.725 145.644 316.641 145.932L314.403 145.75C314.516 145.22 314.74 144.761 315.073 144.375C315.406 143.985 315.836 143.686 316.363 143.477C316.893 143.265 317.507 143.159 318.204 143.159C318.689 143.159 319.153 143.216 319.596 143.33C320.043 143.443 320.439 143.619 320.783 143.858C321.132 144.097 321.406 144.403 321.607 144.778C321.808 145.15 321.908 145.595 321.908 146.114V152H319.613V150.79H319.545C319.405 151.062 319.217 151.303 318.982 151.511C318.747 151.716 318.465 151.877 318.136 151.994C317.806 152.108 317.425 152.165 316.994 152.165ZM317.687 150.494C318.043 150.494 318.357 150.424 318.63 150.284C318.903 150.14 319.117 149.947 319.272 149.705C319.427 149.462 319.505 149.187 319.505 148.881V147.955C319.429 148.004 319.325 148.049 319.192 148.091C319.064 148.129 318.918 148.165 318.755 148.199C318.592 148.229 318.429 148.258 318.266 148.284C318.103 148.307 317.956 148.328 317.823 148.347C317.539 148.388 317.291 148.455 317.079 148.545C316.867 148.636 316.702 148.759 316.585 148.915C316.467 149.066 316.408 149.256 316.408 149.483C316.408 149.812 316.528 150.064 316.766 150.239C317.009 150.409 317.316 150.494 317.687 150.494ZM323.786 152V143.273H326.133V144.795H326.224C326.383 144.254 326.65 143.845 327.025 143.568C327.4 143.288 327.832 143.148 328.32 143.148C328.442 143.148 328.572 143.155 328.712 143.17C328.853 143.186 328.976 143.206 329.082 143.233V145.381C328.968 145.347 328.811 145.316 328.61 145.29C328.409 145.263 328.226 145.25 328.059 145.25C327.703 145.25 327.385 145.328 327.104 145.483C326.828 145.634 326.608 145.847 326.445 146.119C326.286 146.392 326.207 146.706 326.207 147.062V152H323.786ZM332.526 149.489L332.532 146.585H332.884L335.68 143.273H338.458L334.702 147.659H334.129L332.526 149.489ZM330.333 152V140.364H332.754V152H330.333ZM335.788 152L333.219 148.199L334.833 146.489L338.623 152H335.788Z" fill="black" fill-opacity="0.5"/>
<rect x="413" y="30" width="179" height="158" rx="36" fill="#F5F4FA"/>
<path d="M474.017 99H471.381L475.398 87.3636H478.568L482.58 99H479.943L477.028 90.0227H476.938L474.017 99ZM473.852 94.4261H480.08V96.3466H473.852V94.4261ZM486.355 93.9545V99H483.935V90.2727H486.241V91.8125H486.344C486.537 91.3049 486.861 90.9034 487.315 90.608C487.77 90.3087 488.321 90.1591 488.969 90.1591C489.575 90.1591 490.103 90.2917 490.554 90.5568C491.005 90.822 491.355 91.2008 491.605 91.6932C491.855 92.1818 491.98 92.7652 491.98 93.4432V99H489.56V93.875C489.563 93.3409 489.427 92.9242 489.151 92.625C488.874 92.322 488.493 92.1705 488.009 92.1705C487.683 92.1705 487.395 92.2405 487.145 92.3807C486.899 92.5208 486.705 92.7254 486.565 92.9943C486.429 93.2595 486.359 93.5795 486.355 93.9545ZM497.104 99.142C496.441 99.142 495.84 98.9716 495.303 98.6307C494.768 98.286 494.344 97.7803 494.03 97.1136C493.719 96.4432 493.564 95.6212 493.564 94.6477C493.564 93.6477 493.725 92.8163 494.047 92.1534C494.369 91.4867 494.797 90.9886 495.331 90.6591C495.869 90.3258 496.458 90.1591 497.098 90.1591C497.587 90.1591 497.994 90.2424 498.32 90.4091C498.649 90.572 498.914 90.7765 499.115 91.0227C499.32 91.2652 499.475 91.5038 499.581 91.7386H499.655V87.3636H502.07V99H499.683V97.6023H499.581C499.467 97.8447 499.306 98.0852 499.098 98.3239C498.893 98.5587 498.626 98.7538 498.297 98.9091C497.971 99.0644 497.573 99.142 497.104 99.142ZM497.871 97.2159C498.261 97.2159 498.59 97.1098 498.859 96.8977C499.132 96.6818 499.34 96.3807 499.484 95.9943C499.632 95.608 499.706 95.1553 499.706 94.6364C499.706 94.1174 499.634 93.6667 499.49 93.2841C499.346 92.9015 499.138 92.6061 498.865 92.3977C498.592 92.1894 498.261 92.0852 497.871 92.0852C497.473 92.0852 497.138 92.1932 496.865 92.4091C496.592 92.625 496.386 92.9242 496.246 93.3068C496.106 93.6894 496.036 94.1326 496.036 94.6364C496.036 95.1439 496.106 95.5928 496.246 95.983C496.39 96.3693 496.596 96.6723 496.865 96.892C497.138 97.108 497.473 97.2159 497.871 97.2159ZM504.06 99V90.2727H506.406V91.7955H506.497C506.656 91.2538 506.923 90.8447 507.298 90.5682C507.673 90.2879 508.105 90.1477 508.594 90.1477C508.715 90.1477 508.846 90.1553 508.986 90.1705C509.126 90.1856 509.249 90.2064 509.355 90.233V92.3807C509.241 92.3466 509.084 92.3163 508.884 92.2898C508.683 92.2633 508.499 92.25 508.332 92.25C507.976 92.25 507.658 92.3277 507.378 92.483C507.101 92.6345 506.882 92.8466 506.719 93.1193C506.56 93.392 506.48 93.7064 506.48 94.0625V99H504.06ZM514.143 99.1705C513.261 99.1705 512.498 98.983 511.854 98.608C511.214 98.2292 510.719 97.7027 510.371 97.0284C510.022 96.3504 509.848 95.5644 509.848 94.6705C509.848 93.7689 510.022 92.9811 510.371 92.3068C510.719 91.6288 511.214 91.1023 511.854 90.7273C512.498 90.3485 513.261 90.1591 514.143 90.1591C515.026 90.1591 515.787 90.3485 516.428 90.7273C517.071 91.1023 517.568 91.6288 517.916 92.3068C518.265 92.9811 518.439 93.7689 518.439 94.6705C518.439 95.5644 518.265 96.3504 517.916 97.0284C517.568 97.7027 517.071 98.2292 516.428 98.608C515.787 98.983 515.026 99.1705 514.143 99.1705ZM514.155 97.2955C514.556 97.2955 514.892 97.1818 515.161 96.9545C515.429 96.7235 515.632 96.4091 515.768 96.0114C515.909 95.6136 515.979 95.161 515.979 94.6534C515.979 94.1458 515.909 93.6932 515.768 93.2955C515.632 92.8977 515.429 92.5833 515.161 92.3523C514.892 92.1212 514.556 92.0057 514.155 92.0057C513.75 92.0057 513.409 92.1212 513.132 92.3523C512.859 92.5833 512.653 92.8977 512.513 93.2955C512.376 93.6932 512.308 94.1458 512.308 94.6534C512.308 95.161 512.376 95.6136 512.513 96.0114C512.653 96.4091 512.859 96.7235 513.132 96.9545C513.409 97.1818 513.75 97.2955 514.155 97.2955ZM520.013 99V90.2727H522.433V99H520.013ZM521.229 89.1477C520.869 89.1477 520.56 89.0284 520.303 88.7898C520.049 88.5473 519.922 88.2576 519.922 87.9205C519.922 87.5871 520.049 87.3011 520.303 87.0625C520.56 86.8201 520.869 86.6989 521.229 86.6989C521.589 86.6989 521.895 86.8201 522.149 87.0625C522.407 87.3011 522.536 87.5871 522.536 87.9205C522.536 88.2576 522.407 88.5473 522.149 88.7898C521.895 89.0284 521.589 89.1477 521.229 89.1477ZM527.588 99.142C526.925 99.142 526.325 98.9716 525.787 98.6307C525.253 98.286 524.829 97.7803 524.514 97.1136C524.204 96.4432 524.048 95.6212 524.048 94.6477C524.048 93.6477 524.209 92.8163 524.531 92.1534C524.853 91.4867 525.281 90.9886 525.815 90.6591C526.353 90.3258 526.942 90.1591 527.582 90.1591C528.071 90.1591 528.478 90.2424 528.804 90.4091C529.134 90.572 529.399 90.7765 529.599 91.0227C529.804 91.2652 529.959 91.5038 530.065 91.7386H530.139V87.3636H532.554V99H530.168V97.6023H530.065C529.952 97.8447 529.791 98.0852 529.582 98.3239C529.378 98.5587 529.111 98.7538 528.781 98.9091C528.455 99.0644 528.058 99.142 527.588 99.142ZM528.355 97.2159C528.745 97.2159 529.075 97.1098 529.344 96.8977C529.616 96.6818 529.825 96.3807 529.969 95.9943C530.116 95.608 530.19 95.1553 530.19 94.6364C530.19 94.1174 530.118 93.6667 529.974 93.2841C529.83 92.9015 529.622 92.6061 529.349 92.3977C529.077 92.1894 528.745 92.0852 528.355 92.0852C527.957 92.0852 527.622 92.1932 527.349 92.4091C527.077 92.625 526.87 92.9242 526.73 93.3068C526.59 93.6894 526.52 94.1326 526.52 94.6364C526.52 95.1439 526.59 95.5928 526.73 95.983C526.874 96.3693 527.08 96.6723 527.349 96.892C527.622 97.108 527.957 97.2159 528.355 97.2159Z" fill="black"/>
<path d="M469.998 123.392V121.364H479.555V123.392H475.992V133H473.56V123.392H469.998ZM483.504 127.955V133H481.083V121.364H483.435V125.812H483.538C483.735 125.297 484.053 124.894 484.492 124.602C484.932 124.307 485.483 124.159 486.146 124.159C486.752 124.159 487.28 124.292 487.731 124.557C488.185 124.818 488.538 125.195 488.788 125.688C489.041 126.176 489.166 126.761 489.163 127.443V133H486.742V127.875C486.746 127.337 486.61 126.919 486.333 126.619C486.06 126.32 485.678 126.17 485.185 126.17C484.856 126.17 484.564 126.241 484.31 126.381C484.06 126.521 483.863 126.725 483.719 126.994C483.579 127.259 483.507 127.58 483.504 127.955ZM495.045 133.17C494.147 133.17 493.374 132.989 492.727 132.625C492.083 132.258 491.586 131.739 491.238 131.068C490.889 130.394 490.715 129.597 490.715 128.676C490.715 127.778 490.889 126.991 491.238 126.312C491.586 125.634 492.077 125.106 492.71 124.727C493.346 124.348 494.092 124.159 494.948 124.159C495.524 124.159 496.06 124.252 496.556 124.438C497.056 124.619 497.492 124.894 497.863 125.261C498.238 125.629 498.53 126.091 498.738 126.648C498.946 127.201 499.05 127.848 499.05 128.591V129.256H491.681V127.756H496.772C496.772 127.407 496.696 127.098 496.545 126.83C496.393 126.561 496.183 126.35 495.914 126.199C495.649 126.044 495.34 125.966 494.988 125.966C494.621 125.966 494.295 126.051 494.011 126.222C493.73 126.388 493.511 126.614 493.352 126.898C493.192 127.178 493.111 127.491 493.107 127.835V129.261C493.107 129.693 493.187 130.066 493.346 130.381C493.509 130.695 493.738 130.938 494.033 131.108C494.329 131.278 494.679 131.364 495.085 131.364C495.353 131.364 495.6 131.326 495.823 131.25C496.047 131.174 496.238 131.061 496.397 130.909C496.556 130.758 496.677 130.572 496.761 130.352L498.999 130.5C498.886 131.038 498.653 131.508 498.3 131.909C497.952 132.307 497.501 132.617 496.948 132.841C496.399 133.061 495.764 133.17 495.045 133.17ZM500.63 133V124.273H502.937V125.812H503.039C503.221 125.301 503.524 124.898 503.948 124.602C504.372 124.307 504.88 124.159 505.471 124.159C506.069 124.159 506.579 124.309 506.999 124.608C507.42 124.903 507.7 125.305 507.84 125.812H507.931C508.109 125.312 508.431 124.913 508.897 124.614C509.367 124.311 509.922 124.159 510.562 124.159C511.376 124.159 512.037 124.419 512.545 124.938C513.056 125.453 513.312 126.184 513.312 127.131V133H510.897V127.608C510.897 127.123 510.768 126.759 510.511 126.517C510.253 126.275 509.931 126.153 509.545 126.153C509.105 126.153 508.763 126.294 508.516 126.574C508.27 126.85 508.147 127.216 508.147 127.67V133H505.8V127.557C505.8 127.129 505.677 126.788 505.431 126.534C505.189 126.28 504.869 126.153 504.471 126.153C504.202 126.153 503.96 126.222 503.744 126.358C503.531 126.491 503.363 126.678 503.238 126.92C503.113 127.159 503.05 127.439 503.05 127.761V133H500.63ZM519.201 133.17C518.303 133.17 517.531 132.989 516.883 132.625C516.239 132.258 515.743 131.739 515.394 131.068C515.046 130.394 514.871 129.597 514.871 128.676C514.871 127.778 515.046 126.991 515.394 126.312C515.743 125.634 516.233 125.106 516.866 124.727C517.502 124.348 518.248 124.159 519.104 124.159C519.68 124.159 520.216 124.252 520.712 124.438C521.212 124.619 521.648 124.894 522.019 125.261C522.394 125.629 522.686 126.091 522.894 126.648C523.103 127.201 523.207 127.848 523.207 128.591V129.256H515.837V127.756H520.928C520.928 127.407 520.853 127.098 520.701 126.83C520.549 126.561 520.339 126.35 520.07 126.199C519.805 126.044 519.496 125.966 519.144 125.966C518.777 125.966 518.451 126.051 518.167 126.222C517.887 126.388 517.667 126.614 517.508 126.898C517.349 127.178 517.267 127.491 517.263 127.835V129.261C517.263 129.693 517.343 130.066 517.502 130.381C517.665 130.695 517.894 130.938 518.19 131.108C518.485 131.278 518.835 131.364 519.241 131.364C519.51 131.364 519.756 131.326 519.979 131.25C520.203 131.174 520.394 131.061 520.553 130.909C520.712 130.758 520.834 130.572 520.917 130.352L523.156 130.5C523.042 131.038 522.809 131.508 522.457 131.909C522.108 132.307 521.657 132.617 521.104 132.841C520.555 133.061 519.921 133.17 519.201 133.17ZM532.048 126.761L529.832 126.898C529.794 126.708 529.712 126.538 529.587 126.386C529.462 126.231 529.298 126.108 529.093 126.017C528.892 125.922 528.652 125.875 528.371 125.875C527.996 125.875 527.68 125.955 527.423 126.114C527.165 126.269 527.036 126.477 527.036 126.739C527.036 126.947 527.12 127.123 527.286 127.267C527.453 127.411 527.739 127.527 528.144 127.614L529.724 127.932C530.572 128.106 531.205 128.386 531.621 128.773C532.038 129.159 532.246 129.667 532.246 130.295C532.246 130.867 532.078 131.369 531.741 131.801C531.407 132.233 530.949 132.57 530.366 132.812C529.786 133.051 529.118 133.17 528.36 133.17C527.205 133.17 526.284 132.93 525.599 132.449C524.917 131.964 524.517 131.305 524.4 130.472L526.781 130.347C526.853 130.699 527.027 130.968 527.303 131.153C527.58 131.335 527.934 131.426 528.366 131.426C528.79 131.426 529.131 131.345 529.388 131.182C529.65 131.015 529.782 130.801 529.786 130.54C529.782 130.32 529.69 130.14 529.508 130C529.326 129.856 529.046 129.746 528.667 129.67L527.156 129.369C526.303 129.199 525.669 128.903 525.252 128.483C524.839 128.062 524.633 127.527 524.633 126.875C524.633 126.314 524.784 125.831 525.087 125.426C525.394 125.021 525.824 124.708 526.377 124.489C526.934 124.269 527.585 124.159 528.332 124.159C529.434 124.159 530.301 124.392 530.934 124.858C531.57 125.324 531.942 125.958 532.048 126.761ZM535.185 133.148C534.81 133.148 534.488 133.015 534.219 132.75C533.954 132.481 533.822 132.159 533.822 131.784C533.822 131.413 533.954 131.095 534.219 130.83C534.488 130.564 534.81 130.432 535.185 130.432C535.549 130.432 535.867 130.564 536.14 130.83C536.413 131.095 536.549 131.413 536.549 131.784C536.549 132.034 536.485 132.263 536.356 132.472C536.231 132.676 536.066 132.841 535.862 132.966C535.657 133.087 535.432 133.148 535.185 133.148ZM535.185 127.034C534.81 127.034 534.488 126.902 534.219 126.636C533.954 126.371 533.822 126.049 533.822 125.67C533.822 125.299 533.954 124.983 534.219 124.722C534.488 124.456 534.81 124.324 535.185 124.324C535.549 124.324 535.867 124.456 536.14 124.722C536.413 124.983 536.549 125.299 536.549 125.67C536.549 125.924 536.485 126.155 536.356 126.364C536.231 126.568 536.066 126.731 535.862 126.852C535.657 126.973 535.432 127.034 535.185 127.034ZM480.671 155.273C480.364 155.273 480.076 155.248 479.808 155.199C479.542 155.153 479.323 155.095 479.148 155.023L479.694 153.216C479.978 153.303 480.234 153.35 480.461 153.358C480.692 153.366 480.891 153.313 481.058 153.199C481.228 153.085 481.366 152.892 481.472 152.619L481.614 152.25L478.484 143.273H481.029L482.836 149.682H482.927L484.751 143.273H487.313L483.921 152.943C483.758 153.413 483.537 153.822 483.256 154.17C482.98 154.523 482.629 154.794 482.205 154.983C481.781 155.176 481.27 155.273 480.671 155.273ZM492.248 152.17C491.35 152.17 490.577 151.989 489.93 151.625C489.286 151.258 488.79 150.739 488.441 150.068C488.093 149.394 487.918 148.597 487.918 147.676C487.918 146.778 488.093 145.991 488.441 145.312C488.79 144.634 489.28 144.106 489.913 143.727C490.549 143.348 491.295 143.159 492.151 143.159C492.727 143.159 493.263 143.252 493.759 143.438C494.259 143.619 494.695 143.894 495.066 144.261C495.441 144.629 495.733 145.091 495.941 145.648C496.149 146.201 496.254 146.848 496.254 147.591V148.256H488.884V146.756H493.975C493.975 146.407 493.899 146.098 493.748 145.83C493.596 145.561 493.386 145.35 493.117 145.199C492.852 145.044 492.543 144.966 492.191 144.966C491.824 144.966 491.498 145.051 491.214 145.222C490.933 145.388 490.714 145.614 490.555 145.898C490.396 146.178 490.314 146.491 490.31 146.835V148.261C490.31 148.693 490.39 149.066 490.549 149.381C490.712 149.695 490.941 149.938 491.237 150.108C491.532 150.278 491.882 150.364 492.288 150.364C492.557 150.364 492.803 150.326 493.026 150.25C493.25 150.174 493.441 150.061 493.6 149.909C493.759 149.758 493.88 149.572 493.964 149.352L496.202 149.5C496.089 150.038 495.856 150.508 495.504 150.909C495.155 151.307 494.704 151.617 494.151 151.841C493.602 152.061 492.968 152.17 492.248 152.17ZM500.254 140.364V152H497.833V140.364H500.254ZM504.613 140.364V152H502.192V140.364H504.613ZM510.495 152.17C509.612 152.17 508.849 151.983 508.205 151.608C507.565 151.229 507.071 150.703 506.722 150.028C506.374 149.35 506.2 148.564 506.2 147.67C506.2 146.769 506.374 145.981 506.722 145.307C507.071 144.629 507.565 144.102 508.205 143.727C508.849 143.348 509.612 143.159 510.495 143.159C511.378 143.159 512.139 143.348 512.779 143.727C513.423 144.102 513.919 144.629 514.268 145.307C514.616 145.981 514.79 146.769 514.79 147.67C514.79 148.564 514.616 149.35 514.268 150.028C513.919 150.703 513.423 151.229 512.779 151.608C512.139 151.983 511.378 152.17 510.495 152.17ZM510.506 150.295C510.908 150.295 511.243 150.182 511.512 149.955C511.781 149.723 511.984 149.409 512.12 149.011C512.26 148.614 512.33 148.161 512.33 147.653C512.33 147.146 512.26 146.693 512.12 146.295C511.984 145.898 511.781 145.583 511.512 145.352C511.243 145.121 510.908 145.006 510.506 145.006C510.101 145.006 509.76 145.121 509.484 145.352C509.211 145.583 509.004 145.898 508.864 146.295C508.728 146.693 508.66 147.146 508.66 147.653C508.66 148.161 508.728 148.614 508.864 149.011C509.004 149.409 509.211 149.723 509.484 149.955C509.76 150.182 510.101 150.295 510.506 150.295ZM517.867 152L515.492 143.273H517.941L519.293 149.136H519.373L520.782 143.273H523.185L524.617 149.102H524.691L526.021 143.273H528.464L526.094 152H523.532L522.032 146.511H521.924L520.424 152H517.867Z" fill="black" fill-opacity="0.5"/>
</svg>
