<svg width="668" height="668" viewBox="0 0 668 668" fill="none" xmlns="http://www.w3.org/2000/svg">
<circle cx="334" cy="334" r="334" fill="url(#paint0_linear)"/>
<path d="M217.187 338.051V332.26C247.825 328.823 264.406 313.261 264.406 287.206V250.293C264.406 224.78 272.876 215.009 295.764 215.009H303.694V176.649H290.358C236.832 176.649 214.304 196.915 214.304 244.141V273.092C214.304 299.691 202.409 309.823 171.771 310.004V360.307C202.589 360.488 214.304 370.62 214.304 397.219V425.446C214.304 473.215 237.012 493.843 290.358 493.843H303.694V455.483H295.764C273.056 455.483 264.406 445.893 264.406 420.199V383.106C264.406 356.869 247.825 341.489 217.187 338.051Z" fill="var(--contrast-color)"/>
<path d="M450.813 329.949V335.74C420.175 338.997 403.594 354.558 403.594 380.794V417.707C403.594 443.22 395.124 452.991 372.236 452.991H364.306V491.351H377.642C431.168 491.351 453.876 471.085 453.876 423.859V394.908C453.876 368.128 465.591 358.177 496.229 357.996V307.693C465.411 307.331 453.876 297.38 453.876 270.781V242.373C453.876 194.785 431.168 174.157 377.642 174.157H364.306V212.517H372.236C394.944 212.517 403.594 222.107 403.594 247.62V284.894C403.594 310.95 420.175 326.511 450.813 329.949Z" fill="var(--contrast-color)"/>
<defs>
<linearGradient id="paint0_linear" x1="539.587" y1="602.845" x2="47.4432" y2="-159.409" gradientUnits="userSpaceOnUse">
<stop stop-color="#00E2BC"/>
<stop offset="1" stop-color="#FFBAE3"/>
</linearGradient>
</defs>
</svg>
