<svg width="24" height="24" viewBox="0 0 24 24" fill="none" xmlns="http://www.w3.org/2000/svg">
    <path d="M11.1422 20L4.53211 5.69543V17.0538C4.53211 18.0986 4.64564 18.7505 4.87271 19.0096C5.18387 19.3606 5.67584 19.5361 6.34862 19.5361H6.95413V20H1V19.5361H1.6055C2.32875 19.5361 2.84174 19.3188 3.1445 18.8842C3.32951 18.6168 3.42202 18.0066 3.42202 17.0538V5.94617C3.42202 5.19395 3.33792 4.65069 3.16972 4.31637C3.05199 4.07399 2.83333 3.8734 2.51376 3.7146C2.2026 3.54744 1.69801 3.46386 1 3.46386V3H5.84404L12.0505 16.3016L18.156 3H23V3.46386H22.4071C21.6755 3.46386 21.1583 3.68117 20.8555 4.11578C20.6705 4.38324 20.578 4.99336 20.578 5.94617V17.0538C20.578 18.0986 20.6957 18.7505 20.9312 19.0096C21.2424 19.3606 21.7343 19.5361 22.4071 19.5361H23V20H15.7339V19.5361H16.3394C17.0711 19.5361 17.5841 19.3188 17.8784 18.8842C18.0635 18.6168 18.156 18.0066 18.156 17.0538V5.69543L11.5585 20H11.1422Z" />
    <style>
        path { fill: #000; }
        @media (prefers-color-scheme: dark) {
            path { fill: #FFF; }
        }
    </style>
</svg>
