<svg width="608" height="369" viewBox="0 0 608 369" fill="none" xmlns="http://www.w3.org/2000/svg">
<path d="M32.8496 31.4375H34.4785V28.4492C34.5527 28.5312 34.6309 28.6055 34.7129 28.6719C34.7949 28.7383 34.8809 28.7988 34.9707 28.8535C35.123 28.9395 35.2871 29.0039 35.4629 29.0469C35.6426 29.0938 35.8379 29.1172 36.0488 29.1172C36.4473 29.1172 36.8008 29.0352 37.1094 28.8711C37.418 28.707 37.6777 28.4805 37.8887 28.1914C38.0957 27.9062 38.252 27.5664 38.3574 27.1719C38.4668 26.7773 38.5215 26.3496 38.5215 25.8887V25.7656C38.5215 25.2852 38.4668 24.8477 38.3574 24.4531C38.252 24.0547 38.0938 23.7129 37.8828 23.4277C37.6719 23.1465 37.4121 22.9297 37.1035 22.7773C36.7949 22.6211 36.4395 22.543 36.0371 22.543C35.8418 22.543 35.6582 22.5645 35.4863 22.6074C35.3184 22.6465 35.1641 22.7031 35.0234 22.7773C34.9062 22.8398 34.7969 22.9141 34.6953 23C34.5938 23.082 34.5 23.1758 34.4141 23.2812L34.3555 22.6602H32.8496V31.4375ZM36.8926 25.7656V25.8887C36.8926 26.1504 36.8691 26.3984 36.8223 26.6328C36.7754 26.8633 36.7012 27.0664 36.5996 27.2422C36.498 27.418 36.3652 27.5566 36.2012 27.6582C36.041 27.7598 35.8457 27.8105 35.6152 27.8105C35.4707 27.8105 35.3398 27.7969 35.2227 27.7695C35.1055 27.7383 35.002 27.6953 34.9121 27.6406C34.8184 27.582 34.7344 27.5117 34.6602 27.4297C34.5898 27.3477 34.5293 27.2559 34.4785 27.1543V24.5059C34.5332 24.3965 34.5977 24.3008 34.6719 24.2188C34.75 24.1367 34.8398 24.0684 34.9414 24.0137C35.0312 23.9668 35.1309 23.9316 35.2402 23.9082C35.3496 23.8809 35.4707 23.8672 35.6035 23.8672C35.834 23.8672 36.0293 23.916 36.1895 24.0137C36.3535 24.1113 36.4883 24.2441 36.5938 24.4121C36.6953 24.584 36.7695 24.7871 36.8164 25.0215C36.8672 25.252 36.8926 25.5 36.8926 25.7656ZM43.9941 29H45.6465V28.9004C45.5645 28.7402 45.502 28.5488 45.459 28.3262C45.416 28.1035 45.3945 27.8223 45.3945 27.4824V24.7637C45.3945 24.3965 45.3262 24.0742 45.1895 23.7969C45.0527 23.5156 44.8633 23.2832 44.6211 23.0996C44.3789 22.916 44.0918 22.7773 43.7598 22.6836C43.4316 22.5898 43.0762 22.543 42.6934 22.543C42.2676 22.543 41.8887 22.5977 41.5566 22.707C41.2285 22.8125 40.9512 22.957 40.7246 23.1406C40.4941 23.3242 40.3184 23.5371 40.1973 23.7793C40.0801 24.0215 40.0215 24.2773 40.0215 24.5469H41.6504C41.6504 24.4336 41.666 24.3301 41.6973 24.2363C41.7324 24.1426 41.7852 24.0625 41.8555 23.9961C41.9336 23.9219 42.0352 23.8652 42.1602 23.8262C42.2852 23.7832 42.4336 23.7617 42.6055 23.7617C42.8008 23.7617 42.9707 23.7871 43.1152 23.8379C43.2637 23.8848 43.3867 23.9531 43.4844 24.043C43.5781 24.1289 43.6484 24.2324 43.6953 24.3535C43.7422 24.4707 43.7656 24.6035 43.7656 24.752V25.127H42.8574C42.3887 25.127 41.9727 25.1699 41.6094 25.2559C41.25 25.3379 40.9473 25.459 40.7012 25.6191C40.4277 25.7949 40.2227 26.0195 40.0859 26.293C39.9492 26.5625 39.8809 26.873 39.8809 27.2246C39.8809 27.498 39.9355 27.752 40.0449 27.9863C40.1543 28.2168 40.3066 28.416 40.502 28.584C40.6973 28.752 40.9297 28.8828 41.1992 28.9766C41.4727 29.0703 41.7715 29.1172 42.0957 29.1172C42.2949 29.1172 42.4805 29.0977 42.6523 29.0586C42.8242 29.0234 42.9824 28.9727 43.127 28.9062C43.2676 28.8438 43.3965 28.7695 43.5137 28.6836C43.6309 28.5977 43.7344 28.5059 43.8242 28.4082C43.8438 28.5215 43.8672 28.6289 43.8945 28.7305C43.9219 28.832 43.9551 28.9219 43.9941 29ZM42.4414 27.8574C42.2891 27.8574 42.1543 27.8398 42.0371 27.8047C41.9238 27.7656 41.8281 27.7148 41.75 27.6523C41.6719 27.5859 41.6113 27.5059 41.5684 27.4121C41.5293 27.3145 41.5098 27.209 41.5098 27.0957C41.5098 26.9512 41.5371 26.8184 41.5918 26.6973C41.6465 26.5723 41.7305 26.4648 41.8438 26.375C41.957 26.2891 42.1035 26.2227 42.2832 26.1758C42.4629 26.125 42.6797 26.0996 42.9336 26.0996H43.7656V27.1895C43.7188 27.2715 43.6543 27.3535 43.5723 27.4355C43.4902 27.5137 43.3926 27.584 43.2793 27.6465C43.166 27.709 43.0391 27.7598 42.8984 27.7988C42.7578 27.8379 42.6055 27.8574 42.4414 27.8574ZM47.0762 25.7832V25.9062C47.0762 26.3672 47.1348 26.7949 47.252 27.1895C47.373 27.5801 47.5449 27.918 47.7676 28.2031C47.9902 28.4883 48.2578 28.7129 48.5703 28.877C48.8867 29.0371 49.2422 29.1172 49.6367 29.1172C49.8359 29.1172 50.0215 29.0957 50.1934 29.0527C50.3691 29.0098 50.5293 28.9492 50.6738 28.8711C50.7715 28.8164 50.8633 28.7539 50.9492 28.6836C51.0352 28.6133 51.1172 28.5352 51.1953 28.4492V28.8125C51.1953 29.0273 51.1641 29.2207 51.1016 29.3926C51.043 29.5645 50.957 29.709 50.8438 29.8262C50.7188 29.9551 50.5625 30.0527 50.375 30.1191C50.1914 30.1855 49.9805 30.2188 49.7422 30.2188C49.5938 30.2188 49.4492 30.2031 49.3086 30.1719C49.1719 30.1445 49.0391 30.1016 48.9102 30.043C48.7773 29.9844 48.6504 29.9082 48.5293 29.8145C48.4082 29.7246 48.2949 29.6191 48.1895 29.498L47.457 30.4883C47.5938 30.6641 47.7578 30.8145 47.9492 30.9395C48.1406 31.0684 48.3438 31.1738 48.5586 31.2559C48.7734 31.3379 48.9902 31.3984 49.209 31.4375C49.4277 31.4766 49.6328 31.4961 49.8242 31.4961C50.2695 31.4961 50.6758 31.4355 51.043 31.3145C51.4141 31.1973 51.7324 31.0234 51.998 30.793C52.2598 30.5625 52.4629 30.2793 52.6074 29.9434C52.7559 29.6074 52.8301 29.2246 52.8301 28.7949V22.6602H51.3477L51.2832 23.2637C51.2051 23.166 51.1191 23.0781 51.0254 23C50.9316 22.918 50.8301 22.8477 50.7207 22.7891C50.5762 22.707 50.4141 22.6465 50.2344 22.6074C50.0586 22.5645 49.8633 22.543 49.6484 22.543C49.25 22.543 48.8926 22.6211 48.5762 22.7773C48.2598 22.9336 47.9902 23.1543 47.7676 23.4395C47.5449 23.7246 47.373 24.0664 47.252 24.4648C47.1348 24.8633 47.0762 25.3027 47.0762 25.7832ZM48.7109 25.9062V25.7832C48.7109 25.5176 48.7383 25.2695 48.793 25.0391C48.8477 24.8047 48.9316 24.5996 49.0449 24.4238C49.1543 24.252 49.293 24.1172 49.4609 24.0195C49.6289 23.918 49.8281 23.8672 50.0586 23.8672C50.1836 23.8672 50.2988 23.8789 50.4043 23.9023C50.5137 23.9258 50.6133 23.959 50.7031 24.002C50.8086 24.0527 50.9023 24.1191 50.9844 24.2012C51.0664 24.2832 51.1367 24.3789 51.1953 24.4883V27.1719C51.1406 27.2695 51.0762 27.3574 51.002 27.4355C50.9277 27.5137 50.8418 27.5801 50.7441 27.6348C50.6504 27.6855 50.5449 27.7246 50.4277 27.752C50.3145 27.7793 50.1875 27.793 50.0469 27.793C49.8164 27.793 49.6172 27.7441 49.4492 27.6465C49.2812 27.5488 49.1426 27.4141 49.0332 27.2422C48.9238 27.0742 48.8418 26.877 48.7871 26.6504C48.7363 26.4199 48.7109 26.1719 48.7109 25.9062ZM57.5234 29.1172C58.1367 29.1172 58.668 28.998 59.1172 28.7598C59.5664 28.5215 59.8945 28.2559 60.1016 27.9629L59.2871 27.084C59.0996 27.3262 58.8555 27.5078 58.5547 27.6289C58.2539 27.75 57.9434 27.8105 57.623 27.8105C57.3965 27.8105 57.1875 27.7754 56.9961 27.7051C56.8047 27.6348 56.6348 27.5352 56.4863 27.4062C56.3418 27.2812 56.2266 27.1426 56.1406 26.9902C56.0547 26.834 55.9844 26.6289 55.9297 26.375V26.3574H60.2305V25.666C60.2305 25.2012 60.166 24.7773 60.0371 24.3945C59.9082 24.0078 59.7207 23.6777 59.4746 23.4043C59.2246 23.1309 58.9199 22.9199 58.5605 22.7715C58.2051 22.6191 57.7988 22.543 57.3418 22.543C56.9004 22.543 56.4922 22.623 56.1172 22.7832C55.7422 22.9434 55.418 23.168 55.1445 23.457C54.8711 23.7461 54.6582 24.0918 54.5059 24.4941C54.3535 24.8926 54.2773 25.334 54.2773 25.8184V26.0527C54.2773 26.4785 54.3535 26.8789 54.5059 27.2539C54.6621 27.625 54.8828 27.9473 55.168 28.2207C55.4531 28.498 55.7949 28.7168 56.1934 28.877C56.5918 29.0371 57.0352 29.1172 57.5234 29.1172ZM57.3301 23.8613C57.5371 23.8613 57.7188 23.8945 57.875 23.9609C58.0352 24.0234 58.1699 24.1094 58.2793 24.2188C58.3887 24.332 58.4746 24.4648 58.5371 24.6172C58.5996 24.7695 58.6309 24.9316 58.6309 25.1035V25.2324H55.959C55.998 25.0254 56.0566 24.8379 56.1348 24.6699C56.2129 24.502 56.3105 24.3574 56.4277 24.2363C56.541 24.1152 56.6738 24.0234 56.8262 23.9609C56.9785 23.8945 57.1465 23.8613 57.3301 23.8613ZM71.8496 21.1074H70.2207V22.6602H68.7734V23.8613H70.2207V26.7441C70.2207 27.1621 70.2754 27.5215 70.3848 27.8223C70.4941 28.1191 70.6504 28.3633 70.8535 28.5547C71.0527 28.75 71.293 28.8945 71.5742 28.9883C71.8594 29.0781 72.1758 29.123 72.5234 29.123C72.7031 29.123 72.8848 29.1133 73.0684 29.0938C73.2559 29.0781 73.4355 29.0547 73.6074 29.0234C73.7793 28.9922 73.9414 28.9531 74.0938 28.9062C74.2461 28.8555 74.3789 28.7969 74.4922 28.7305L74.334 27.6113C74.2598 27.6309 74.1699 27.6504 74.0645 27.6699C73.9629 27.6895 73.8535 27.707 73.7363 27.7227C73.6152 27.7422 73.4883 27.7578 73.3555 27.7695C73.2266 27.7812 73.0996 27.7871 72.9746 27.7871C72.8027 27.7871 72.6465 27.7676 72.5059 27.7285C72.3691 27.6895 72.252 27.623 72.1543 27.5293C72.0566 27.4395 71.9805 27.3184 71.9258 27.166C71.875 27.0098 71.8496 26.8164 71.8496 26.5859V23.8613H74.2168V22.6602H71.8496V21.1074ZM75.8457 25.7715V25.8945C75.8457 26.3594 75.9121 26.7891 76.0449 27.1836C76.1777 27.5742 76.373 27.9141 76.6309 28.2031C76.8848 28.4922 77.1973 28.7188 77.5684 28.8828C77.9434 29.043 78.3691 29.123 78.8457 29.123C79.3184 29.123 79.7402 29.043 80.1113 28.8828C80.4824 28.7188 80.7949 28.4922 81.0488 28.2031C81.3027 27.9141 81.4961 27.5742 81.6289 27.1836C81.7617 26.7891 81.8281 26.3594 81.8281 25.8945V25.7715C81.8281 25.3105 81.7617 24.8848 81.6289 24.4941C81.4961 24.0996 81.3027 23.7578 81.0488 23.4688C80.791 23.1797 80.4766 22.9531 80.1055 22.7891C79.7344 22.625 79.3105 22.543 78.834 22.543C78.3574 22.543 77.9336 22.625 77.5625 22.7891C77.1953 22.9531 76.8848 23.1797 76.6309 23.4688C76.373 23.7578 76.1777 24.0996 76.0449 24.4941C75.9121 24.8848 75.8457 25.3105 75.8457 25.7715ZM77.4746 25.8945V25.7715C77.4746 25.5137 77.5 25.2695 77.5508 25.0391C77.6016 24.8086 77.6816 24.6055 77.791 24.4297C77.9004 24.2539 78.041 24.1152 78.2129 24.0137C78.3848 23.9121 78.5918 23.8613 78.834 23.8613C79.0801 23.8613 79.2891 23.9121 79.4609 24.0137C79.6328 24.1152 79.7734 24.2539 79.8828 24.4297C79.9883 24.6055 80.0664 24.8086 80.1172 25.0391C80.168 25.2695 80.1934 25.5137 80.1934 25.7715V25.8945C80.1934 26.1602 80.168 26.4102 80.1172 26.6445C80.0664 26.875 79.9883 27.0762 79.8828 27.248C79.7734 27.4238 79.6328 27.5625 79.4609 27.6641C79.2891 27.7656 79.084 27.8164 78.8457 27.8164C78.5996 27.8164 78.3887 27.7656 78.2129 27.6641C78.041 27.5625 77.9004 27.4238 77.791 27.248C77.6816 27.0762 77.6016 26.875 77.5508 26.6445C77.5 26.4102 77.4746 26.1602 77.4746 25.8945ZM83.2988 31.4375H84.9277V28.4492C85.002 28.5312 85.0801 28.6055 85.1621 28.6719C85.2441 28.7383 85.3301 28.7988 85.4199 28.8535C85.5723 28.9395 85.7363 29.0039 85.9121 29.0469C86.0918 29.0938 86.2871 29.1172 86.498 29.1172C86.8965 29.1172 87.25 29.0352 87.5586 28.8711C87.8672 28.707 88.127 28.4805 88.3379 28.1914C88.5449 27.9062 88.7012 27.5664 88.8066 27.1719C88.916 26.7773 88.9707 26.3496 88.9707 25.8887V25.7656C88.9707 25.2852 88.916 24.8477 88.8066 24.4531C88.7012 24.0547 88.543 23.7129 88.332 23.4277C88.1211 23.1465 87.8613 22.9297 87.5527 22.7773C87.2441 22.6211 86.8887 22.543 86.4863 22.543C86.291 22.543 86.1074 22.5645 85.9355 22.6074C85.7676 22.6465 85.6133 22.7031 85.4727 22.7773C85.3555 22.8398 85.2461 22.9141 85.1445 23C85.043 23.082 84.9492 23.1758 84.8633 23.2812L84.8047 22.6602H83.2988V31.4375ZM87.3418 25.7656V25.8887C87.3418 26.1504 87.3184 26.3984 87.2715 26.6328C87.2246 26.8633 87.1504 27.0664 87.0488 27.2422C86.9473 27.418 86.8145 27.5566 86.6504 27.6582C86.4902 27.7598 86.2949 27.8105 86.0645 27.8105C85.9199 27.8105 85.7891 27.7969 85.6719 27.7695C85.5547 27.7383 85.4512 27.6953 85.3613 27.6406C85.2676 27.582 85.1836 27.5117 85.1094 27.4297C85.0391 27.3477 84.9785 27.2559 84.9277 27.1543V24.5059C84.9824 24.3965 85.0469 24.3008 85.1211 24.2188C85.1992 24.1367 85.2891 24.0684 85.3906 24.0137C85.4805 23.9668 85.5801 23.9316 85.6895 23.9082C85.7988 23.8809 85.9199 23.8672 86.0527 23.8672C86.2832 23.8672 86.4785 23.916 86.6387 24.0137C86.8027 24.1113 86.9375 24.2441 87.043 24.4121C87.1445 24.584 87.2188 24.7871 87.2656 25.0215C87.3164 25.252 87.3418 25.5 87.3418 25.7656Z" fill="#A6ACB8"/>
<path d="M45.88 172.836C46.8693 173.209 47.7187 173.667 48.428 174.208L48.428 159.2L50.724 159.2L50.724 174.208C51.4333 173.685 52.2827 173.237 53.272 172.864L53.272 174.992C51.9093 176.149 50.8733 177.419 50.164 178.8L48.96 178.8C48.288 177.419 47.2613 176.149 45.88 174.992L45.88 172.836Z" fill="#A6ACB8"/>
<path d="M10.8496 341.438H12.4785V338.449C12.5527 338.531 12.6309 338.605 12.7129 338.672C12.7949 338.738 12.8809 338.799 12.9707 338.854C13.123 338.939 13.2871 339.004 13.4629 339.047C13.6426 339.094 13.8379 339.117 14.0488 339.117C14.4473 339.117 14.8008 339.035 15.1094 338.871C15.418 338.707 15.6777 338.48 15.8887 338.191C16.0957 337.906 16.252 337.566 16.3574 337.172C16.4668 336.777 16.5215 336.35 16.5215 335.889V335.766C16.5215 335.285 16.4668 334.848 16.3574 334.453C16.252 334.055 16.0938 333.713 15.8828 333.428C15.6719 333.146 15.4121 332.93 15.1035 332.777C14.7949 332.621 14.4395 332.543 14.0371 332.543C13.8418 332.543 13.6582 332.564 13.4863 332.607C13.3184 332.646 13.1641 332.703 13.0234 332.777C12.9062 332.84 12.7969 332.914 12.6953 333C12.5938 333.082 12.5 333.176 12.4141 333.281L12.3555 332.66H10.8496V341.438ZM14.8926 335.766V335.889C14.8926 336.15 14.8691 336.398 14.8223 336.633C14.7754 336.863 14.7012 337.066 14.5996 337.242C14.498 337.418 14.3652 337.557 14.2012 337.658C14.041 337.76 13.8457 337.811 13.6152 337.811C13.4707 337.811 13.3398 337.797 13.2227 337.77C13.1055 337.738 13.002 337.695 12.9121 337.641C12.8184 337.582 12.7344 337.512 12.6602 337.43C12.5898 337.348 12.5293 337.256 12.4785 337.154V334.506C12.5332 334.396 12.5977 334.301 12.6719 334.219C12.75 334.137 12.8398 334.068 12.9414 334.014C13.0312 333.967 13.1309 333.932 13.2402 333.908C13.3496 333.881 13.4707 333.867 13.6035 333.867C13.834 333.867 14.0293 333.916 14.1895 334.014C14.3535 334.111 14.4883 334.244 14.5938 334.412C14.6953 334.584 14.7695 334.787 14.8164 335.021C14.8672 335.252 14.8926 335.5 14.8926 335.766ZM21.9941 339H23.6465V338.9C23.5645 338.74 23.502 338.549 23.459 338.326C23.416 338.104 23.3945 337.822 23.3945 337.482V334.764C23.3945 334.396 23.3262 334.074 23.1895 333.797C23.0527 333.516 22.8633 333.283 22.6211 333.1C22.3789 332.916 22.0918 332.777 21.7598 332.684C21.4316 332.59 21.0762 332.543 20.6934 332.543C20.2676 332.543 19.8887 332.598 19.5566 332.707C19.2285 332.812 18.9512 332.957 18.7246 333.141C18.4941 333.324 18.3184 333.537 18.1973 333.779C18.0801 334.021 18.0215 334.277 18.0215 334.547H19.6504C19.6504 334.434 19.666 334.33 19.6973 334.236C19.7324 334.143 19.7852 334.062 19.8555 333.996C19.9336 333.922 20.0352 333.865 20.1602 333.826C20.2852 333.783 20.4336 333.762 20.6055 333.762C20.8008 333.762 20.9707 333.787 21.1152 333.838C21.2637 333.885 21.3867 333.953 21.4844 334.043C21.5781 334.129 21.6484 334.232 21.6953 334.354C21.7422 334.471 21.7656 334.604 21.7656 334.752V335.127H20.8574C20.3887 335.127 19.9727 335.17 19.6094 335.256C19.25 335.338 18.9473 335.459 18.7012 335.619C18.4277 335.795 18.2227 336.02 18.0859 336.293C17.9492 336.562 17.8809 336.873 17.8809 337.225C17.8809 337.498 17.9355 337.752 18.0449 337.986C18.1543 338.217 18.3066 338.416 18.502 338.584C18.6973 338.752 18.9297 338.883 19.1992 338.977C19.4727 339.07 19.7715 339.117 20.0957 339.117C20.2949 339.117 20.4805 339.098 20.6523 339.059C20.8242 339.023 20.9824 338.973 21.127 338.906C21.2676 338.844 21.3965 338.77 21.5137 338.684C21.6309 338.598 21.7344 338.506 21.8242 338.408C21.8438 338.521 21.8672 338.629 21.8945 338.73C21.9219 338.832 21.9551 338.922 21.9941 339ZM20.4414 337.857C20.2891 337.857 20.1543 337.84 20.0371 337.805C19.9238 337.766 19.8281 337.715 19.75 337.652C19.6719 337.586 19.6113 337.506 19.5684 337.412C19.5293 337.314 19.5098 337.209 19.5098 337.096C19.5098 336.951 19.5371 336.818 19.5918 336.697C19.6465 336.572 19.7305 336.465 19.8438 336.375C19.957 336.289 20.1035 336.223 20.2832 336.176C20.4629 336.125 20.6797 336.1 20.9336 336.1H21.7656V337.189C21.7188 337.271 21.6543 337.354 21.5723 337.436C21.4902 337.514 21.3926 337.584 21.2793 337.646C21.166 337.709 21.0391 337.76 20.8984 337.799C20.7578 337.838 20.6055 337.857 20.4414 337.857ZM25.0762 335.783V335.906C25.0762 336.367 25.1348 336.795 25.252 337.189C25.373 337.58 25.5449 337.918 25.7676 338.203C25.9902 338.488 26.2578 338.713 26.5703 338.877C26.8867 339.037 27.2422 339.117 27.6367 339.117C27.8359 339.117 28.0215 339.096 28.1934 339.053C28.3691 339.01 28.5293 338.949 28.6738 338.871C28.7715 338.816 28.8633 338.754 28.9492 338.684C29.0352 338.613 29.1172 338.535 29.1953 338.449V338.812C29.1953 339.027 29.1641 339.221 29.1016 339.393C29.043 339.564 28.957 339.709 28.8438 339.826C28.7188 339.955 28.5625 340.053 28.375 340.119C28.1914 340.186 27.9805 340.219 27.7422 340.219C27.5938 340.219 27.4492 340.203 27.3086 340.172C27.1719 340.145 27.0391 340.102 26.9102 340.043C26.7773 339.984 26.6504 339.908 26.5293 339.814C26.4082 339.725 26.2949 339.619 26.1895 339.498L25.457 340.488C25.5938 340.664 25.7578 340.814 25.9492 340.939C26.1406 341.068 26.3438 341.174 26.5586 341.256C26.7734 341.338 26.9902 341.398 27.209 341.438C27.4277 341.477 27.6328 341.496 27.8242 341.496C28.2695 341.496 28.6758 341.436 29.043 341.314C29.4141 341.197 29.7324 341.023 29.998 340.793C30.2598 340.562 30.4629 340.279 30.6074 339.943C30.7559 339.607 30.8301 339.225 30.8301 338.795V332.66H29.3477L29.2832 333.264C29.2051 333.166 29.1191 333.078 29.0254 333C28.9316 332.918 28.8301 332.848 28.7207 332.789C28.5762 332.707 28.4141 332.646 28.2344 332.607C28.0586 332.564 27.8633 332.543 27.6484 332.543C27.25 332.543 26.8926 332.621 26.5762 332.777C26.2598 332.934 25.9902 333.154 25.7676 333.439C25.5449 333.725 25.373 334.066 25.252 334.465C25.1348 334.863 25.0762 335.303 25.0762 335.783ZM26.7109 335.906V335.783C26.7109 335.518 26.7383 335.27 26.793 335.039C26.8477 334.805 26.9316 334.6 27.0449 334.424C27.1543 334.252 27.293 334.117 27.4609 334.02C27.6289 333.918 27.8281 333.867 28.0586 333.867C28.1836 333.867 28.2988 333.879 28.4043 333.902C28.5137 333.926 28.6133 333.959 28.7031 334.002C28.8086 334.053 28.9023 334.119 28.9844 334.201C29.0664 334.283 29.1367 334.379 29.1953 334.488V337.172C29.1406 337.27 29.0762 337.357 29.002 337.436C28.9277 337.514 28.8418 337.58 28.7441 337.635C28.6504 337.686 28.5449 337.725 28.4277 337.752C28.3145 337.779 28.1875 337.793 28.0469 337.793C27.8164 337.793 27.6172 337.744 27.4492 337.646C27.2812 337.549 27.1426 337.414 27.0332 337.242C26.9238 337.074 26.8418 336.877 26.7871 336.65C26.7363 336.42 26.7109 336.172 26.7109 335.906ZM35.5234 339.117C36.1367 339.117 36.668 338.998 37.1172 338.76C37.5664 338.521 37.8945 338.256 38.1016 337.963L37.2871 337.084C37.0996 337.326 36.8555 337.508 36.5547 337.629C36.2539 337.75 35.9434 337.811 35.623 337.811C35.3965 337.811 35.1875 337.775 34.9961 337.705C34.8047 337.635 34.6348 337.535 34.4863 337.406C34.3418 337.281 34.2266 337.143 34.1406 336.99C34.0547 336.834 33.9844 336.629 33.9297 336.375V336.357H38.2305V335.666C38.2305 335.201 38.166 334.777 38.0371 334.395C37.9082 334.008 37.7207 333.678 37.4746 333.404C37.2246 333.131 36.9199 332.92 36.5605 332.771C36.2051 332.619 35.7988 332.543 35.3418 332.543C34.9004 332.543 34.4922 332.623 34.1172 332.783C33.7422 332.943 33.418 333.168 33.1445 333.457C32.8711 333.746 32.6582 334.092 32.5059 334.494C32.3535 334.893 32.2773 335.334 32.2773 335.818V336.053C32.2773 336.479 32.3535 336.879 32.5059 337.254C32.6621 337.625 32.8828 337.947 33.168 338.221C33.4531 338.498 33.7949 338.717 34.1934 338.877C34.5918 339.037 35.0352 339.117 35.5234 339.117ZM35.3301 333.861C35.5371 333.861 35.7188 333.895 35.875 333.961C36.0352 334.023 36.1699 334.109 36.2793 334.219C36.3887 334.332 36.4746 334.465 36.5371 334.617C36.5996 334.77 36.6309 334.932 36.6309 335.104V335.232H33.959C33.998 335.025 34.0566 334.838 34.1348 334.67C34.2129 334.502 34.3105 334.357 34.4277 334.236C34.541 334.115 34.6738 334.023 34.8262 333.961C34.9785 333.895 35.1465 333.861 35.3301 333.861ZM52.5742 335.895V335.771C52.5742 335.389 52.5391 335.029 52.4688 334.693C52.4023 334.357 52.2988 334.055 52.1582 333.785C52.0684 333.617 51.9648 333.463 51.8477 333.322C51.7305 333.178 51.5996 333.055 51.4551 332.953C51.2754 332.82 51.0703 332.719 50.8398 332.648C50.6133 332.578 50.3633 332.543 50.0898 332.543C49.8906 332.543 49.7051 332.564 49.5332 332.607C49.3652 332.646 49.209 332.707 49.0645 332.789C48.9629 332.844 48.8672 332.91 48.7773 332.988C48.6875 333.062 48.6035 333.145 48.5254 333.234V330H46.8965V339H48.3613L48.4375 338.326C48.5039 338.412 48.5742 338.492 48.6484 338.566C48.7227 338.637 48.8027 338.701 48.8887 338.76C49.0488 338.877 49.2285 338.965 49.4277 339.023C49.6309 339.086 49.8555 339.117 50.1016 339.117C50.3711 339.117 50.6172 339.082 50.8398 339.012C51.0664 338.945 51.2695 338.848 51.4492 338.719C51.6484 338.582 51.8203 338.41 51.9648 338.203C52.1133 337.996 52.2324 337.766 52.3223 337.512C52.4043 337.281 52.4668 337.031 52.5098 336.762C52.5527 336.488 52.5742 336.199 52.5742 335.895ZM50.9453 335.771V335.895C50.9453 336.059 50.9375 336.217 50.9219 336.369C50.9102 336.521 50.8887 336.662 50.8574 336.791C50.8184 336.967 50.7598 337.125 50.6816 337.266C50.6074 337.402 50.5098 337.514 50.3887 337.6C50.3027 337.662 50.2012 337.711 50.084 337.746C49.9668 337.781 49.8359 337.799 49.6914 337.799C49.5234 337.799 49.373 337.779 49.2402 337.74C49.1113 337.701 48.998 337.645 48.9004 337.57C48.8184 337.512 48.7461 337.443 48.6836 337.365C48.625 337.283 48.5723 337.193 48.5254 337.096V334.57C48.5605 334.496 48.5996 334.428 48.6426 334.365C48.6855 334.299 48.7324 334.24 48.7832 334.189C48.8887 334.084 49.0156 334.004 49.1641 333.949C49.3125 333.895 49.4844 333.867 49.6797 333.867C49.8242 333.867 49.9531 333.885 50.0664 333.92C50.1797 333.951 50.2812 334 50.3711 334.066C50.5078 334.172 50.6094 334.289 50.6758 334.418C50.7461 334.543 50.8027 334.686 50.8457 334.846C50.8809 334.982 50.9062 335.129 50.9219 335.285C50.9375 335.441 50.9453 335.604 50.9453 335.771ZM53.8457 335.771V335.895C53.8457 336.359 53.9121 336.789 54.0449 337.184C54.1777 337.574 54.373 337.914 54.6309 338.203C54.8848 338.492 55.1973 338.719 55.5684 338.883C55.9434 339.043 56.3691 339.123 56.8457 339.123C57.3184 339.123 57.7402 339.043 58.1113 338.883C58.4824 338.719 58.7949 338.492 59.0488 338.203C59.3027 337.914 59.4961 337.574 59.6289 337.184C59.7617 336.789 59.8281 336.359 59.8281 335.895V335.771C59.8281 335.311 59.7617 334.885 59.6289 334.494C59.4961 334.1 59.3027 333.758 59.0488 333.469C58.791 333.18 58.4766 332.953 58.1055 332.789C57.7344 332.625 57.3105 332.543 56.834 332.543C56.3574 332.543 55.9336 332.625 55.5625 332.789C55.1953 332.953 54.8848 333.18 54.6309 333.469C54.373 333.758 54.1777 334.1 54.0449 334.494C53.9121 334.885 53.8457 335.311 53.8457 335.771ZM55.4746 335.895V335.771C55.4746 335.514 55.5 335.27 55.5508 335.039C55.6016 334.809 55.6816 334.605 55.791 334.43C55.9004 334.254 56.041 334.115 56.2129 334.014C56.3848 333.912 56.5918 333.861 56.834 333.861C57.0801 333.861 57.2891 333.912 57.4609 334.014C57.6328 334.115 57.7734 334.254 57.8828 334.43C57.9883 334.605 58.0664 334.809 58.1172 335.039C58.168 335.27 58.1934 335.514 58.1934 335.771V335.895C58.1934 336.16 58.168 336.41 58.1172 336.645C58.0664 336.875 57.9883 337.076 57.8828 337.248C57.7734 337.424 57.6328 337.562 57.4609 337.664C57.2891 337.766 57.084 337.816 56.8457 337.816C56.5996 337.816 56.3887 337.766 56.2129 337.664C56.041 337.562 55.9004 337.424 55.791 337.248C55.6816 337.076 55.6016 336.875 55.5508 336.645C55.5 336.41 55.4746 336.16 55.4746 335.895ZM64.2637 331.107H62.6348V332.66H61.1875V333.861H62.6348V336.744C62.6348 337.162 62.6895 337.521 62.7988 337.822C62.9082 338.119 63.0645 338.363 63.2676 338.555C63.4668 338.75 63.707 338.895 63.9883 338.988C64.2734 339.078 64.5898 339.123 64.9375 339.123C65.1172 339.123 65.2988 339.113 65.4824 339.094C65.6699 339.078 65.8496 339.055 66.0215 339.023C66.1934 338.992 66.3555 338.953 66.5078 338.906C66.6602 338.855 66.793 338.797 66.9062 338.73L66.748 337.611C66.6738 337.631 66.584 337.65 66.4785 337.67C66.377 337.689 66.2676 337.707 66.1504 337.723C66.0293 337.742 65.9023 337.758 65.7695 337.77C65.6406 337.781 65.5137 337.787 65.3887 337.787C65.2168 337.787 65.0605 337.768 64.9199 337.729C64.7832 337.689 64.666 337.623 64.5684 337.529C64.4707 337.439 64.3945 337.318 64.3398 337.166C64.2891 337.01 64.2637 336.816 64.2637 336.586V333.861H66.6309V332.66H64.2637V331.107ZM71.4707 331.107H69.8418V332.66H68.3945V333.861H69.8418V336.744C69.8418 337.162 69.8965 337.521 70.0059 337.822C70.1152 338.119 70.2715 338.363 70.4746 338.555C70.6738 338.75 70.9141 338.895 71.1953 338.988C71.4805 339.078 71.7969 339.123 72.1445 339.123C72.3242 339.123 72.5059 339.113 72.6895 339.094C72.877 339.078 73.0566 339.055 73.2285 339.023C73.4004 338.992 73.5625 338.953 73.7148 338.906C73.8672 338.855 74 338.797 74.1133 338.73L73.9551 337.611C73.8809 337.631 73.791 337.65 73.6855 337.67C73.584 337.689 73.4746 337.707 73.3574 337.723C73.2363 337.742 73.1094 337.758 72.9766 337.77C72.8477 337.781 72.7207 337.787 72.5957 337.787C72.4238 337.787 72.2676 337.768 72.127 337.729C71.9902 337.689 71.873 337.623 71.7754 337.529C71.6777 337.439 71.6016 337.318 71.5469 337.166C71.4961 337.01 71.4707 336.816 71.4707 336.586V333.861H73.8379V332.66H71.4707V331.107ZM75.4668 335.771V335.895C75.4668 336.359 75.5332 336.789 75.666 337.184C75.7988 337.574 75.9941 337.914 76.252 338.203C76.5059 338.492 76.8184 338.719 77.1895 338.883C77.5645 339.043 77.9902 339.123 78.4668 339.123C78.9395 339.123 79.3613 339.043 79.7324 338.883C80.1035 338.719 80.416 338.492 80.6699 338.203C80.9238 337.914 81.1172 337.574 81.25 337.184C81.3828 336.789 81.4492 336.359 81.4492 335.895V335.771C81.4492 335.311 81.3828 334.885 81.25 334.494C81.1172 334.1 80.9238 333.758 80.6699 333.469C80.4121 333.18 80.0977 332.953 79.7266 332.789C79.3555 332.625 78.9316 332.543 78.4551 332.543C77.9785 332.543 77.5547 332.625 77.1836 332.789C76.8164 332.953 76.5059 333.18 76.252 333.469C75.9941 333.758 75.7988 334.1 75.666 334.494C75.5332 334.885 75.4668 335.311 75.4668 335.771ZM77.0957 335.895V335.771C77.0957 335.514 77.1211 335.27 77.1719 335.039C77.2227 334.809 77.3027 334.605 77.4121 334.43C77.5215 334.254 77.6621 334.115 77.834 334.014C78.0059 333.912 78.2129 333.861 78.4551 333.861C78.7012 333.861 78.9102 333.912 79.082 334.014C79.2539 334.115 79.3945 334.254 79.5039 334.43C79.6094 334.605 79.6875 334.809 79.7383 335.039C79.7891 335.27 79.8145 335.514 79.8145 335.771V335.895C79.8145 336.16 79.7891 336.41 79.7383 336.645C79.6875 336.875 79.6094 337.076 79.5039 337.248C79.3945 337.424 79.2539 337.562 79.082 337.664C78.9102 337.766 78.7051 337.816 78.4668 337.816C78.2207 337.816 78.0098 337.766 77.834 337.664C77.6621 337.562 77.5215 337.424 77.4121 337.248C77.3027 337.076 77.2227 336.875 77.1719 336.645C77.1211 336.41 77.0957 336.16 77.0957 335.895ZM83.9102 332.66H82.5098V339H83.9922V334.254C84.0117 334.203 84.0332 334.156 84.0566 334.113C84.0801 334.07 84.1074 334.033 84.1387 334.002C84.1816 333.959 84.2305 333.926 84.2852 333.902C84.3398 333.879 84.4023 333.867 84.4727 333.867C84.5352 333.867 84.5938 333.877 84.6484 333.896C84.7031 333.912 84.752 333.941 84.7949 333.984C84.834 334.027 84.8652 334.088 84.8887 334.166C84.9121 334.244 84.9238 334.344 84.9238 334.465V339H86.3594V334.324C86.3594 334.277 86.3594 334.24 86.3594 334.213C86.3594 334.186 86.3594 334.168 86.3594 334.16C86.3789 334.117 86.4023 334.08 86.4297 334.049C86.457 334.014 86.4883 333.982 86.5234 333.955C86.5664 333.928 86.6113 333.906 86.6582 333.891C86.709 333.875 86.7656 333.867 86.8281 333.867C86.8867 333.867 86.9434 333.877 86.998 333.896C87.0566 333.912 87.1074 333.941 87.1504 333.984C87.1934 334.031 87.2266 334.094 87.25 334.172C87.2773 334.25 87.291 334.35 87.291 334.471V339H88.7734V334.477C88.7734 334.125 88.7383 333.828 88.668 333.586C88.6016 333.34 88.5078 333.139 88.3867 332.982C88.2617 332.83 88.1152 332.719 87.9473 332.648C87.7832 332.578 87.6055 332.543 87.4141 332.543C87.2617 332.543 87.1211 332.562 86.9922 332.602C86.8633 332.641 86.748 332.695 86.6465 332.766C86.5645 332.82 86.4883 332.887 86.418 332.965C86.3516 333.039 86.291 333.123 86.2363 333.217C86.2012 333.119 86.1582 333.033 86.1074 332.959C86.0605 332.881 86.0039 332.814 85.9375 332.76C85.8516 332.686 85.75 332.631 85.6328 332.596C85.5156 332.561 85.3828 332.543 85.2344 332.543C84.9297 332.543 84.6699 332.623 84.4551 332.783C84.2441 332.939 84.0781 333.154 83.957 333.428L83.9102 332.66Z" fill="#A6ACB8"/>
<rect x="101" y="19" width="487" height="150" fill="#717171"/>
<rect x="101" y="32" width="487" height="310" fill="#12B7E3"/>
<rect x="101" y="77" width="487" height="265" fill="#6839B5"/>
<rect x="101" y="192" width="487" height="150" fill="#34A575"/>
<rect x="101" y="122" width="487" height="175" fill="#F84988"/>
</svg>
